<?xml version="1.0" encoding="UTF-8"?>
<svg width="308px" height="124px" viewBox="0 0 308 124" version="1.1" xmlns="http://www.w3.org/2000/svg" xmlns:xlink="http://www.w3.org/1999/xlink">
    <!-- Generator: Sketch 56.3 (81716) - https://sketch.com -->
    <title>Group 2</title>
    <desc>Created with Sketch.</desc>
    <defs>
        <polygon id="path-1" points="0.549864253 0.5279819 116.958718 0.5279819 116.958718 123.966335 0.549864253 123.966335"></polygon>
    </defs>
    <g id="Home" stroke="none" stroke-width="1" fill="none" fill-rule="evenodd">
        <g transform="translate(-79.000000, -25.000000)" id="Group-2">
            <g transform="translate(79.000000, 25.000000)">
                <g id="ymca_wht_rgb_r">
                    <path d="M145.225882,0.5279819 L98.7174661,0.5279819 C95.2752036,0.5279819 92.4871674,3.31714027 92.4871674,6.75940271 C92.4871674,7.83107692 92.7217014,8.83766516 93.2311674,9.71857014 L116.574588,50.1509864 C117.649629,52.0165973 119.663928,53.2756742 121.972796,53.2756742 C124.282787,53.2756742 126.292036,52.0165973 127.369882,50.1509864 L150.711059,9.71857014 C151.220525,8.83766516 151.457303,7.83107692 151.457303,6.75940271 C151.457303,3.31714027 148.669267,0.5279819 145.225882,0.5279819" id="Fill-1" fill="#FFFFFE"></path>
                    <path d="M155.486462,3.90515837 C155.49095,5.39652489 156.696724,6.60285973 158.191457,6.60734842 C159.68114,6.60285973 160.886914,5.39652489 160.890281,3.90515837 C160.886914,2.41323077 159.68114,1.20689593 158.191457,1.20465158 C156.696724,1.20689593 155.49095,2.41323077 155.486462,3.90515837 Z M154.783982,3.90515837 C154.783982,2.02439819 156.308452,0.49880543 158.191457,0.49880543 C160.071656,0.49880543 161.59276,2.02439819 161.59276,3.90515837 C161.59276,5.78535747 160.071656,7.31095023 158.191457,7.31095023 C156.308452,7.31095023 154.783982,5.78535747 154.783982,3.90515837 L154.783982,3.90515837 Z" id="Fill-2" fill="#FFFFFE"></path>
                    <g id="Group-6" transform="translate(42.642534, 0.000000)">
                        <mask id="mask-2" fill="white">
                            <use xlink:href="#path-1"></use>
                        </mask>
                        <g id="Clip-4"></g>
                        <path d="M116.002281,2.74314932 C115.863692,2.67638009 115.224615,2.70555656 115.050679,2.70555656 L115.050679,3.82660633 L115.703222,3.82660633 C115.932706,3.82660633 116.042118,3.79125792 116.104959,3.71046154 C116.142552,3.65266968 116.179023,3.58982805 116.179023,3.33790045 C116.179023,2.96141176 116.118425,2.80599095 116.002281,2.74314932 Z M116.82876,5.61366516 L116.504452,5.61366516 C116.378208,5.61366516 116.310317,5.59907692 116.217738,5.49078733 L115.296434,4.3360724 L115.050679,4.3360724 L115.050679,5.4279457 C115.050679,5.56877828 114.993448,5.61366516 114.873937,5.61366516 L114.648941,5.61366516 C114.494643,5.61366516 114.443023,5.58448869 114.443023,5.4279457 L114.443023,2.36834389 C114.443023,2.20450679 114.540652,2.19833484 114.648941,2.19833484 L115.633647,2.19833484 C116.195294,2.19833484 116.310317,2.22975566 116.511186,2.42838009 C116.687928,2.6118552 116.772652,2.92886878 116.772652,3.38447059 C116.772652,3.96070588 116.540362,4.28220814 116.01743,4.32036199 L116.895529,5.3679095 C116.996525,5.49078733 116.978009,5.61366516 116.82876,5.61366516 L116.82876,5.61366516 Z" id="Fill-3" fill="#FFFFFE" mask="url(#mask-2)"></path>
                        <path d="M71.1507511,58.7114751 L70.895457,58.267095 L41.5231674,7.39230769 C39.0745882,3.14993665 34.380543,0.5279819 29.166371,0.5279819 L5.35893213,0.5279819 C2.70443439,0.5279819 0.549864253,2.68311312 0.549864253,5.33648869 C0.549864253,6.16296833 0.74119457,6.95353846 1.12441629,7.616181 L30.1813756,57.9433484 C31.5105882,60.2034027 32.2708597,62.8371403 32.2708597,65.6509864 C32.2708597,68.3784253 31.5526697,70.9375385 30.2975204,73.153267 L5.03406335,116.915167 C4.65084163,117.574443 4.4600724,118.367258 4.4600724,119.193738 C4.4600724,121.849357 6.61295928,124 9.26970136,124 L33.6971403,124 C38.91019,124 43.6047964,121.38029 46.0511312,117.139041 L46.5561086,116.26543 L70.850009,74.1851041 L71.3028054,73.4035113 C72.5411222,71.254552 73.1134299,68.800362 73.1134299,66.1913122 C73.1134299,63.4711674 72.416,60.9025158 71.1507511,58.7114751 Z" id="Fill-5" fill="#FFFFFE" mask="url(#mask-2)"></path>
                    </g>
                    <path d="M24.2153484,64.7644706 C22.2161991,64.7644706 20.4431674,65.4276742 19.2211222,66.0190588 L19.2211222,59.180543 C19.2211222,58.4775023 18.9248688,57.588181 17.7791312,57.588181 L16.1166335,57.588181 C15.0443982,57.588181 14.4894842,57.920905 14.4894842,59.180543 L14.4894842,81.5532851 C14.4894842,82.4375566 14.7846154,83.0272579 15.8215023,83.0272579 L17.7791312,83.0272579 C18.9248688,83.0272579 19.2211222,82.3999638 19.2211222,81.3658824 L19.2211222,72.8918009 C19.2211222,70.2406697 19.768181,69.3345158 22.3805973,69.3345158 C24.8527421,69.3345158 25.178733,70.2788235 25.178733,72.5276561 C25.178733,72.5276561 25.178733,72.9653032 25.178733,73.2200362 L25.1697557,73.2200362 C25.1753665,73.5752036 25.1764887,73.981991 25.1764887,74.4353484 L25.1764887,81.3658824 C25.1764887,82.4757104 25.5462443,83.0272579 26.5079457,83.0272579 L28.4689412,83.0272579 C29.6135566,83.0272579 29.9092489,82.3999638 29.9092489,81.3658824 L29.9092489,70.0173575 C29.9092489,67.6091765 28.7623891,64.7644706 24.2153484,64.7644706 Z M37.4272398,72.083276 C37.4272398,69.387819 37.983276,68.4631493 40.6445068,68.4631493 C43.1592941,68.4631493 43.4897738,69.4231674 43.4897738,71.7146425 C43.4897738,71.7146425 43.4897738,72.155095 43.4897738,72.4182443 L37.4272398,72.4182443 L37.4272398,72.083276 Z M46.6716923,79.0384977 C46.2278733,79.0384977 45.7834932,79.2214118 45.3783891,79.2954751 C44.0099005,79.5922896 42.492724,79.8868597 40.8666968,79.8868597 C39.9784977,79.8868597 39.1649231,79.7017014 38.6476018,79.4806335 C37.5018643,78.9649955 37.3902081,77.5213213 37.4272398,75.6708597 L46.4489412,75.6708597 C47.7444887,75.6708597 48.0014661,75.4514751 48.0014661,73.4192217 C48.0014661,71.0491946 47.7815204,68.72181 46.6357828,67.05819 C45.5635475,65.5415747 43.713086,64.7644706 40.6445068,64.7644706 C37.3902081,64.7644706 35.3557104,65.615638 34.2481267,67.2057557 C33.0995837,68.8312217 32.7668597,71.0138462 32.7668597,74.2659005 C32.7668597,77.9303529 33.284181,80.3334842 34.8383891,81.7743529 C36.0593122,82.9200905 38.0556561,83.5097919 40.8296652,83.5097919 C42.4192217,83.5097919 44.6018462,83.3627873 46.4113484,83.0272579 C47.5593303,82.8443439 47.7444887,82.2546425 47.7444887,81.4012308 C47.7444887,80.9950045 47.7444887,80.5506244 47.6709864,80.181991 C47.5593303,79.7017014 47.2266063,79.0384977 46.6716923,79.0384977 L46.6716923,79.0384977 Z" id="Fill-7" fill="#FFFFFE"></path>
                    <path d="M10.6488507,69.1998552 L6.65560181,69.1998552 L6.65560181,76.6325611 C6.65560181,78.3685611 6.7319095,79.0362534 6.87891403,79.3308235 C6.99057014,79.5187873 7.17516742,79.627638 7.43326697,79.627638 C8.47015385,79.627638 9.61364706,79.0744072 10.4659367,79.0744072 C11.2789502,79.0744072 11.466914,79.7017014 11.466914,80.1062443 L11.466914,81.4371403 C11.466914,82.80619 11.0954751,83.1770679 9.9121448,83.2864796 C8.72825339,83.3981357 7.91523982,83.471638 6.69375566,83.471638 C2.77288688,83.471638 1.9239638,82.029086 1.9239638,77.6290498 L1.9239638,69.1998552 L0.888760181,69.1998552 C0.186841629,69.1998552 0,68.7173213 0,68.1276199 L0,66.5352579 C0,65.6105882 0.369755656,65.3160181 0.998171946,65.3160181 L1.9239638,65.3160181 L1.9239638,62.3209412 C1.9239638,61.0635475 2.44128507,60.6926697 3.51352036,60.6926697 L5.17826244,60.6926697 C6.32287783,60.6926697 6.65560181,61.6173394 6.65560181,62.3209412 L6.65560181,65.3160181 L10.2830226,65.3160181 C11.0954751,65.3160181 11.5376109,65.4276742 11.5376109,66.5021538 L11.5376109,67.7932127 C11.5376109,69.0506063 11.3154208,69.1998552 10.6488507,69.1998552" id="Fill-8" fill="#FFFFFE"></path>
                    <path d="M97.7024615,112.344 L100.537068,117.141285 L103.215692,118.689321 C103.588814,118.903095 103.664,119.180271 103.454715,119.539928 L103.147801,120.078009 C102.908778,120.489285 102.68771,120.609357 102.252308,120.35743 L99.6729955,118.867747 L93.7939367,118.798733 C93.626733,118.803222 93.4724344,118.778534 93.3596561,118.713448 C93.0504977,118.535023 93.1273665,118.19781 93.2435113,117.99638 L93.6312217,117.326443 C93.8466787,116.951638 94.0554027,116.906751 94.3533394,116.91124 L98.3796923,116.991475 L96.3053575,113.498715 C96.1527421,113.245665 96.0988778,113.047602 96.315457,112.67448 L96.6330317,112.12686 C96.8193122,111.800869 97.0796561,111.751493 97.3181176,111.890081 C97.4656833,111.975367 97.6199819,112.198679 97.7024615,112.344" id="Fill-9" fill="#FFFFFE"></path>
                    <path d="M110.261249,107.751511 L109.959946,108.274443 C109.745611,108.647566 109.478534,108.676181 109.112145,108.499439 L103.852525,105.896 C104.069665,106.152416 104.382751,106.500851 104.626262,106.773538 C105.564398,107.881122 106.58838,109.020127 107.191548,109.786009 C107.431692,110.090118 107.518661,110.340362 107.283005,110.748833 L107.093919,111.074824 C106.85714,111.4861 106.605213,111.524253 106.220869,111.468145 C105.258606,111.327312 103.743674,111.037231 102.315149,110.775765 C101.950443,110.715729 101.507186,110.592851 101.175023,110.534498 L106.059837,113.788796 C106.39705,114.018842 106.504217,114.262353 106.290443,114.633231 L105.986335,115.157846 C105.763023,115.544434 105.499312,115.73857 105.060543,115.437267 L98.1715294,110.610244 C97.7451041,110.31343 97.8522715,110.012127 98.0262081,109.712507 L98.4200905,109.02686 C98.6226425,108.678986 98.8369774,108.566769 99.17419,108.613339 C100.58981,108.817014 103.067005,109.299548 104.970208,109.630027 C103.730769,108.15381 102.071077,106.246679 101.190172,105.122824 C100.98257,104.85238 100.970226,104.613919 101.171095,104.264923 L101.566661,103.579837 C101.739475,103.280778 101.948199,103.034462 102.417267,103.25609 L110.040181,106.809448 C110.522154,107.035005 110.484561,107.36324 110.261249,107.751511" id="Fill-10" fill="#FFFFFE"></path>
                    <path d="M114.16809,101.214299 C113.894842,101.774824 113.741104,102.096326 113.410624,102.670878 C113.141864,103.133213 112.782769,103.673538 112.412452,104.055077 C110.986172,105.545321 109.267005,105.067276 107.109629,103.822787 C103.445738,101.70581 103.430588,100.151041 104.834425,97.7209774 C105.166588,97.1475475 105.370262,96.8501719 105.716452,96.3367783 C106.049176,95.845267 106.250045,95.7784977 106.528905,95.9389683 L106.939059,96.1757466 C107.386805,96.4344072 107.492851,96.5976833 107.261683,96.9932489 C106.995729,97.4578281 106.803837,97.6452308 106.424543,98.30619 C106.193376,98.704 105.85448,99.3739367 105.811837,99.7650136 C105.714208,100.687439 106.684326,101.281068 108.116778,102.105303 C109.526226,102.920561 110.665231,103.481086 111.489466,102.511529 C111.657231,102.308416 111.885032,101.973448 112.107222,101.589665 C112.487638,100.928145 112.55609,100.66724 112.822045,100.202661 C113.05209,99.807095 113.245104,99.8188778 113.695656,100.077538 L114.106371,100.314317 C114.37962,100.473104 114.426751,100.68295 114.16809,101.214299" id="Fill-11" fill="#FFFFFE"></path>
                    <path d="M110.6181,92.764905 L112.982516,95.4631674 C113.149158,95.1747692 113.332072,94.8313846 113.539674,94.4711674 C113.763548,94.0828959 113.927385,93.8281629 114.134986,93.4662624 L110.6181,92.764905 Z M118.739819,93.0662081 L118.344253,93.7524163 C118.12038,94.1367602 117.869575,94.1429321 117.568271,94.0851403 L115.694244,93.7367059 C115.396308,94.2798371 115.168507,94.677086 114.848127,95.2263891 C114.546824,95.7493213 114.281991,96.2116561 114.010986,96.6515475 L115.192633,98.0003982 C115.465321,98.30619 115.594932,98.5137919 115.349176,98.9357285 L115.018136,99.5125249 C114.772941,99.937267 114.625376,99.9322172 114.437412,99.8250498 C114.36391,99.7824072 114.235982,99.6578462 114.109738,99.5013032 L108.453991,92.829991 C108.147077,92.4680905 108.051131,92.2313122 108.318208,91.7712217 L108.612778,91.2600724 C108.878733,90.7977376 109.133466,90.7618281 109.587385,90.8403801 L118.406534,92.3429683 C118.484525,92.35419 118.560833,92.3648507 118.624796,92.4035656 C118.933955,92.581991 118.855403,92.8659005 118.739819,93.0662081 L118.739819,93.0662081 Z" id="Fill-12" fill="#FFFFFE"></path>
                </g>
                <path d="M198.106781,42.1920781 C198.106781,42.6133459 197.969626,42.9341903 197.695312,43.1546211 C197.420999,43.3750519 196.926261,43.5048592 196.211086,43.5440469 C194.85911,43.651813 193.703091,43.7056953 192.742992,43.7056953 C190.950155,43.7056953 189.461045,43.4926154 188.275617,43.0664492 C187.090189,42.640283 186.164394,42.0034925 185.498203,41.1560586 C184.832012,40.3086247 184.364216,39.2530219 184.094801,37.9892187 C183.825385,36.7254156 183.69068,35.2265087 183.69068,33.4924531 C183.69068,30.6513452 184.013973,28.4715623 184.66057,26.9530391 C185.307167,25.4345158 186.27215,24.3960575 187.555547,23.8376328 C188.838944,23.2792081 190.568075,23 192.742992,23 C193.614918,23 194.770938,23.0489839 196.211086,23.1469531 C196.926261,23.1861408 197.420999,23.3159481 197.695312,23.5363789 C197.969626,23.7568097 198.106781,24.0776541 198.106781,24.4989219 L198.106781,25.4688125 C198.106781,26.1350033 198.003915,26.5905535 197.79818,26.8354766 C197.592444,27.0803997 197.190776,27.2028594 196.593164,27.2028594 C196.407023,27.2028594 195.941676,27.1783674 195.197109,27.1293828 C194.452543,27.0803982 193.835346,27.0559062 193.3455,27.0559062 C191.81718,27.0559062 190.764026,27.178366 190.186008,27.4232891 C189.666771,27.6486183 189.287146,28.0135483 189.047121,28.5180898 C188.807096,29.0226314 188.660145,29.6104381 188.606262,30.2815273 C188.552379,30.9526166 188.525437,31.91515 188.525437,33.1691562 L188.525437,33.5218437 C188.525437,34.8346316 188.569523,35.8583948 188.657695,36.5931641 C188.745868,37.3279334 188.976092,37.9647239 189.348375,38.5035547 C189.720658,39.0423855 190.298668,39.3803743 191.082422,39.5175312 C191.542877,39.5959066 192.297229,39.6350937 193.3455,39.6350937 C193.541438,39.6350937 194.011684,39.6106018 194.75625,39.5616172 C195.500816,39.5126326 196.113115,39.4881406 196.593164,39.4881406 C197.190776,39.4881406 197.592444,39.6106003 197.79818,39.8555234 C198.003915,40.1004465 198.106781,40.5608951 198.106781,41.2368828 L198.106781,42.1920781 Z M218.327531,42.1039062 C218.327531,42.907254 217.857286,43.3089219 216.916781,43.3089219 L215.256211,43.3089219 C214.736974,43.3089219 214.3549,43.1987081 214.109977,42.9782773 C213.865053,42.7578466 213.669118,42.4565957 213.522164,42.0745156 L212.581664,39.6057031 C211.621566,39.625297 210.416562,39.6350937 208.966617,39.6350937 C207.320734,39.6350937 206.120629,39.625297 205.366266,39.6057031 L204.543328,41.8687812 C204.366983,42.3586274 204.156353,42.7211082 203.91143,42.9562344 C203.666507,43.1913606 203.255042,43.3089219 202.677023,43.3089219 L201.295664,43.3089219 C200.668661,43.3089219 200.257196,43.2183017 200.061258,43.0370586 C199.865319,42.8558155 199.767352,42.5937517 199.767352,42.2508594 C199.767352,42.0843117 199.855523,41.7561196 200.031867,41.2662734 L206.233289,24.6164844 C206.360649,24.273592 206.502702,23.9919347 206.659453,23.7715039 C206.816204,23.5510731 207.026835,23.3820787 207.291352,23.2645156 C207.555869,23.1469525 207.903654,23.0881719 208.334719,23.0881719 L209.569125,23.0881719 C210.186331,23.0881719 210.64678,23.2081824 210.950484,23.448207 C211.254189,23.6882317 211.499108,24.0678568 211.68525,24.5870938 L218.209969,41.5307891 C218.288344,41.7659152 218.327531,41.9569524 218.327531,42.1039062 Z M211.259086,36.0494375 L208.937227,29.3777656 L206.630062,36.0494375 C206.992549,36.0396406 207.328088,36.032293 207.636691,36.0273945 C207.945295,36.0224961 208.388599,36.0200469 208.966617,36.0200469 C209.505448,36.0200469 209.926709,36.0224961 210.230414,36.0273945 C210.534119,36.032293 210.877006,36.0396406 211.259086,36.0494375 Z M236.417461,42.1920781 C236.417461,42.9366443 235.957012,43.3089219 235.036102,43.3089219 L233.228578,43.3089219 C232.768123,43.3089219 232.378701,43.247692 232.060301,43.1252305 C231.741901,43.0027689 231.421056,42.7554003 231.097758,42.3831172 L226.071961,36.2404766 L225.645797,36.2404766 L225.645797,41.6777422 C225.645797,42.7652007 225.102076,43.3089219 224.014617,43.3089219 L222.72143,43.3089219 C222.133614,43.3089219 221.685412,43.184013 221.376809,42.9341914 C221.068205,42.6843698 220.913906,42.2655576 220.913906,41.6777422 L220.913906,24.7340469 C220.913906,24.1070437 221.087799,23.6955791 221.43559,23.4996406 C221.783381,23.3037021 222.21199,23.2057344 222.72143,23.2057344 L228.320344,23.2057344 C229.966227,23.2057344 231.122247,23.2939054 231.788437,23.47025 C232.454628,23.6465946 233.106114,24.0482625 233.742914,24.6752656 C234.320933,25.2336903 234.742194,25.9929405 235.006711,26.9530391 C235.271228,27.9131376 235.403484,29.0495637 235.403484,30.3623516 C235.403484,33.526758 234.16909,35.4126376 231.700266,36.0200469 L235.932516,40.9576719 C236.255814,41.3495488 236.417461,41.7610135 236.417461,42.1920781 Z M230.700984,30.1272266 L230.700984,30.0978359 C230.700984,28.4911404 230.490354,27.5898369 230.069086,27.3938984 C229.804569,27.2665384 229.143287,27.2028594 228.085219,27.2028594 L227.938266,27.2028594 C226.909589,27.2028594 226.14544,27.2126562 225.645797,27.23225 L225.645797,32.2286562 L228.717117,32.2286562 C229.34412,32.2286562 229.789874,32.1772232 230.054391,32.0743555 C230.318908,31.9714878 230.4928,31.7828998 230.576074,31.5085859 C230.659348,31.2342721 230.700984,30.7738235 230.700984,30.1272266 Z M251.87693,41.7806094 C251.87693,42.7994895 251.338107,43.3089219 250.260445,43.3089219 L241.766555,43.3089219 C241.178739,43.3089219 240.730537,43.184013 240.421934,42.9341914 C240.11333,42.6843698 239.959031,42.2655576 239.959031,41.6777422 L239.959031,24.7340469 C239.959031,24.1070437 240.132924,23.6955791 240.480715,23.4996406 C240.828506,23.3037021 241.257115,23.2057344 241.766555,23.2057344 L243.059742,23.2057344 C244.147201,23.2057344 244.690922,23.7151668 244.690922,24.7340469 L244.690922,39.3411875 C246.728682,39.3019998 248.585171,39.2824062 250.260445,39.2824062 C251.338107,39.2824062 251.87693,39.8506193 251.87693,40.9870625 L251.87693,41.7806094 Z M259.283367,41.6777422 C259.283367,42.7652007 258.744544,43.3089219 257.666883,43.3089219 L256.359,43.3089219 C255.771185,43.3089219 255.325431,43.1864622 255.021727,42.9415391 C254.718022,42.696616 254.566172,42.2753546 254.566172,41.6777422 L254.566172,24.7340469 C254.566172,24.1070437 254.740065,23.6955791 255.087855,23.4996406 C255.435646,23.3037021 255.859357,23.2057344 256.359,23.2057344 L257.666883,23.2057344 C258.744544,23.2057344 259.283367,23.7151668 259.283367,24.7340469 L259.283367,41.6777422 Z M276.741398,36.9899375 C276.741398,39.0570885 276.540565,40.462926 276.138891,41.2074922 C275.766608,41.8638861 275.232683,42.3684201 274.537102,42.7211094 C273.84152,43.0737986 273.077371,43.3040229 272.244633,43.4117891 C271.411894,43.5195552 270.525286,43.5734375 269.584781,43.5734375 C268.174024,43.5734375 266.680016,43.5048601 265.102711,43.3677031 C264.397332,43.3089216 263.909943,43.1717667 263.640527,42.9562344 C263.371112,42.740702 263.236406,42.4272052 263.236406,42.0157344 L263.236406,41.0164531 C263.236406,40.3404654 263.339272,39.882466 263.545008,39.6424414 C263.750743,39.4024168 264.147513,39.2824062 264.735328,39.2824062 C265.137002,39.2824062 265.759097,39.3215934 266.601633,39.3999687 C267.404981,39.4783441 268.546305,39.5175312 270.025641,39.5175312 C270.76041,39.5175312 271.252698,39.4905901 271.50252,39.436707 C271.752341,39.3828239 271.916437,39.257915 271.994812,39.0619766 C272.073188,38.8660381 272.112375,38.5084557 272.112375,37.9892187 L272.112375,37.1368906 C272.112375,36.705826 272.063391,36.4045751 271.965422,36.2331289 C271.867453,36.0616827 271.63233,35.9024851 271.260047,35.7555312 C270.241167,35.3440604 268.967586,34.834628 267.439266,34.2272187 C266.263635,33.7275756 265.413764,33.2818223 264.889629,32.8899453 C264.365493,32.4980684 263.998114,31.9837376 263.78748,31.3469375 C263.576847,30.7101374 263.471531,29.7696468 263.471531,28.5254375 C263.471531,27.4869636 263.579296,26.6028044 263.794828,25.8729336 C264.01036,25.1430628 264.421825,24.540561 265.029234,24.0654102 C265.636644,23.5902593 266.503658,23.2743133 267.630305,23.1175625 C268.188729,23.0391871 269.15861,23 270.539977,23 L270.995531,23 C271.857661,23 273.01368,23.0489839 274.463625,23.1469531 C275.1788,23.1861408 275.673538,23.3159481 275.947852,23.5363789 C276.222165,23.7568097 276.35932,24.0776541 276.35932,24.4989219 L276.35932,25.4688125 C276.35932,26.1350033 276.256454,26.5905535 276.050719,26.8354766 C275.844983,27.0803997 275.443315,27.2028594 274.845703,27.2028594 C274.679155,27.2028594 274.221156,27.1783674 273.471691,27.1293828 C272.722227,27.0803982 272.097682,27.0559062 271.598039,27.0559062 C271.235553,27.0461093 270.892666,27.0387617 270.569367,27.0338633 C270.246069,27.0289648 269.854198,27.0265156 269.393742,27.0265156 C268.835318,27.0265156 268.480184,27.1269326 268.328332,27.3277695 C268.17648,27.5286065 268.100555,27.8984348 268.100555,28.4372656 L268.100555,28.8046484 C268.100555,29.2357131 268.147089,29.536964 268.24016,29.7084102 C268.333231,29.8798563 268.570803,30.0488507 268.952883,30.2153984 C269.295775,30.3525554 269.756224,30.5362449 270.334242,30.7664727 C270.912261,30.9967004 271.284538,31.1461012 271.451086,31.2146797 C273.087172,31.8906674 274.243192,32.427041 274.91918,32.8238164 C275.595167,33.2205918 276.067862,33.7226767 276.337277,34.3300859 C276.606693,34.9374952 276.741398,35.8241035 276.741398,36.9899375 Z M292.480078,41.7806094 C292.480078,42.7994895 291.941255,43.3089219 290.863594,43.3089219 L282.369703,43.3089219 C281.781888,43.3089219 281.333685,43.184013 281.025082,42.9341914 C280.716479,42.6843698 280.56218,42.2655576 280.56218,41.6777422 L280.56218,24.7340469 C280.56218,24.1070437 280.736072,23.6955791 281.083863,23.4996406 C281.431654,23.3037021 281.860263,23.2057344 282.369703,23.2057344 L283.662891,23.2057344 C284.750349,23.2057344 285.29407,23.7151668 285.29407,24.7340469 L285.29407,39.3411875 C287.331831,39.3019998 289.18832,39.2824062 290.863594,39.2824062 C291.941255,39.2824062 292.480078,39.8506193 292.480078,40.9870625 L292.480078,41.7806094 Z M307.86607,41.7806094 C307.86607,42.7994895 307.322349,43.3089219 306.234891,43.3089219 L296.873977,43.3089219 C296.286161,43.3089219 295.837959,43.184013 295.529355,42.9341914 C295.220752,42.6843698 295.066453,42.2655576 295.066453,41.6777422 L295.066453,24.7340469 C295.066453,24.1070437 295.240346,23.6955791 295.588137,23.4996406 C295.935928,23.3037021 296.364537,23.2057344 296.873977,23.2057344 L306.234891,23.2057344 C307.322349,23.2057344 307.86607,23.7151668 307.86607,24.7340469 L307.86607,25.5275937 C307.86607,25.9978461 307.763204,26.399514 307.557469,26.7326094 C307.351733,27.0657048 306.910878,27.23225 306.234891,27.23225 C305.451137,27.23225 304.819245,27.2273516 304.339195,27.2175547 C303.859146,27.2077578 303.30073,27.197961 302.66393,27.1881641 C302.02713,27.1783671 301.461366,27.1685704 300.966621,27.1587734 C300.471876,27.1489765 300.082453,27.1440781 299.798344,27.1440781 L299.798344,30.99425 C300.503722,30.9746562 301.24093,30.9575118 302.009988,30.9428164 C302.779047,30.928121 303.312971,30.9183242 303.611777,30.9134258 C303.910584,30.9085273 304.554722,30.9060781 305.544211,30.9060781 C306.651263,30.9060781 307.204781,31.4791896 307.204781,32.6254297 L307.204781,33.0222031 C307.204781,34.1586463 306.651263,34.7268594 305.544211,34.7268594 C304.721269,34.7268594 303.844458,34.7170626 302.91375,34.6974687 C301.983042,34.6778749 300.944584,34.6582813 299.798344,34.6386875 L299.798344,39.3705781 C300.582098,39.3509843 301.42707,39.3338399 302.333285,39.3191445 C303.239501,39.3044491 303.854248,39.2946524 304.177547,39.2897539 C304.500845,39.2848554 305.18662,39.2824062 306.234891,39.2824062 C306.910878,39.2824062 307.351733,39.4465023 307.557469,39.7746992 C307.763204,40.1028962 307.86607,40.5070132 307.86607,40.9870625 L307.86607,41.7806094 Z M196.41682,57.4475937 C196.41682,58.5840369 195.863302,59.15225 194.75625,59.15225 C193.756964,59.15225 193.103029,59.1498008 192.794426,59.1449023 C192.485823,59.1400039 191.939652,59.1302071 191.155898,59.1155117 C190.372145,59.1008163 189.627589,59.083672 188.922211,59.0640781 L188.922211,62.8848594 C190.881596,62.8456717 192.635219,62.8260781 194.183133,62.8260781 C195.270591,62.8260781 195.814312,63.3991896 195.814312,64.5454297 L195.814312,64.9422031 C195.814312,65.4124555 195.711446,65.8141233 195.505711,66.1472187 C195.299976,66.4803142 194.859121,66.6468594 194.183133,66.6468594 C193.438567,66.6468594 192.645028,66.6370626 191.802492,66.6174687 C190.959957,66.5978749 189.999873,66.5782813 188.922211,66.5586875 L188.922211,73.5977422 C188.922211,74.6852007 188.37849,75.2289219 187.291031,75.2289219 L185.997844,75.2289219 C185.410028,75.2289219 184.961826,75.104013 184.653223,74.8541914 C184.34462,74.6043698 184.19032,74.1855576 184.19032,73.5977422 L184.19032,56.6540469 C184.19032,56.0270437 184.364213,55.6155791 184.712004,55.4196406 C185.059795,55.2237021 185.488404,55.1257344 185.997844,55.1257344 L194.75625,55.1257344 C195.863302,55.1257344 196.41682,55.6351668 196.41682,56.6540469 L196.41682,57.4475937 Z M215.065172,74.0239062 C215.065172,74.827254 214.594927,75.2289219 213.654422,75.2289219 L211.993852,75.2289219 C211.474615,75.2289219 211.09254,75.1187081 210.847617,74.8982773 C210.602694,74.6778466 210.406759,74.3765957 210.259805,73.9945156 L209.319305,71.5257031 C208.359206,71.545297 207.154203,71.5550937 205.704258,71.5550937 C204.058375,71.5550937 202.858269,71.545297 202.103906,71.5257031 L201.280969,73.7887812 C201.104624,74.2786274 200.893993,74.6411082 200.64907,74.8762344 C200.404147,75.1113606 199.992683,75.2289219 199.414664,75.2289219 L198.033305,75.2289219 C197.406302,75.2289219 196.994837,75.1383017 196.798898,74.9570586 C196.60296,74.7758155 196.504992,74.5137517 196.504992,74.1708594 C196.504992,74.0043117 196.593163,73.6761196 196.769508,73.1862734 L202.97093,56.5364844 C203.09829,56.193592 203.240343,55.9119347 203.397094,55.6915039 C203.553845,55.4710731 203.764475,55.3020787 204.028992,55.1845156 C204.293509,55.0669525 204.641295,55.0081719 205.072359,55.0081719 L206.306766,55.0081719 C206.923972,55.0081719 207.38442,55.1281824 207.688125,55.368207 C207.99183,55.6082317 208.236749,55.9878568 208.422891,56.5070937 L214.947609,73.4507891 C215.025985,73.6859152 215.065172,73.8769524 215.065172,74.0239062 Z M207.996727,67.9694375 L205.674867,61.2977656 L203.367703,67.9694375 C203.730189,67.9596406 204.065729,67.952293 204.374332,67.9473945 C204.682935,67.9424961 205.126239,67.9400469 205.704258,67.9400469 C206.243089,67.9400469 206.66435,67.9424961 206.968055,67.9473945 C207.271759,67.952293 207.614647,67.9596406 207.996727,67.9694375 Z M238.607062,73.7593906 C238.607062,74.739083 238.004561,75.2289219 236.799539,75.2289219 L235.535742,75.2289219 C234.497268,75.2289219 233.94375,74.7096927 233.875172,73.6712187 L233.184492,63.4285859 C232.900381,64.1535583 232.393398,65.5520482 231.663527,67.6240977 C230.933657,69.6961471 230.43647,71.0456531 230.171953,71.6726562 C229.985812,72.1429086 229.750689,72.4931434 229.466578,72.7233711 C229.182467,72.9535988 228.766104,73.0687109 228.217477,73.0687109 L227.438625,73.0687109 C227.056545,73.0687109 226.740599,73.0123795 226.490777,72.8997148 C226.240956,72.7870502 226.035223,72.6180558 225.873574,72.3927266 C225.711925,72.1673973 225.582118,71.9273763 225.484148,71.6726562 C225.395976,71.4669208 225.148608,70.812986 224.742035,69.710832 C224.335463,68.6086781 223.921549,67.4844979 223.500281,66.3382578 C223.079014,65.1920177 222.716533,64.2221368 222.412828,63.4285859 L221.751539,73.6712187 C221.682961,74.7096927 221.129443,75.2289219 220.090969,75.2289219 L218.827172,75.2289219 C217.62215,75.2289219 217.019648,74.739083 217.019648,73.7593906 L217.019648,73.5095703 L218.562656,56.5952656 C218.611641,56.0074502 218.792881,55.6155791 219.106383,55.4196406 C219.419884,55.2237021 219.841146,55.1257344 220.37018,55.1257344 L222.045445,55.1257344 C222.554885,55.1257344 222.954104,55.2139054 223.243113,55.39025 C223.532123,55.5665946 223.754999,55.8507012 223.91175,56.2425781 C224.107688,56.7030336 224.384447,57.3961555 224.742035,58.3219648 C225.099623,59.2477742 225.440061,60.1515268 225.763359,61.03325 C226.086658,61.9149732 226.41485,62.8162766 226.747945,63.7371875 C227.081041,64.6580984 227.443521,65.6475728 227.835398,66.7056406 C227.89418,66.5586868 228.119506,65.956185 228.511383,64.8981172 C228.90326,63.8400494 229.282885,62.801591 229.65027,61.7827109 C230.017654,60.7638308 230.375237,59.7915007 230.723027,58.8656914 C231.070818,57.9398821 231.411256,57.0655197 231.744352,56.2425781 C231.910899,55.8409042 232.131327,55.5543485 232.405641,55.3829023 C232.679954,55.2114562 233.071826,55.1257344 233.581266,55.1257344 L235.271227,55.1257344 C235.790464,55.1257344 236.206827,55.2237021 236.520328,55.4196406 C236.83383,55.6155791 237.01507,56.0074502 237.064055,56.5952656 L238.607062,73.5095703 L238.607062,73.7593906 Z M247.115648,73.5977422 C247.115648,74.6852007 246.576826,75.2289219 245.499164,75.2289219 L244.191281,75.2289219 C243.603466,75.2289219 243.157712,75.1064622 242.854008,74.8615391 C242.550303,74.616616 242.398453,74.1953546 242.398453,73.5977422 L242.398453,56.6540469 C242.398453,56.0270437 242.572346,55.6155791 242.920137,55.4196406 C243.267928,55.2237021 243.691638,55.1257344 244.191281,55.1257344 L245.499164,55.1257344 C246.576826,55.1257344 247.115648,55.6351668 247.115648,56.6540469 L247.115648,73.5977422 Z M263.486227,73.7006094 C263.486227,74.7194895 262.947404,75.2289219 261.869742,75.2289219 L253.375852,75.2289219 C252.788036,75.2289219 252.339834,75.104013 252.03123,74.8541914 C251.722627,74.6043698 251.568328,74.1855576 251.568328,73.5977422 L251.568328,56.6540469 C251.568328,56.0270437 251.742221,55.6155791 252.090012,55.4196406 C252.437803,55.2237021 252.866412,55.1257344 253.375852,55.1257344 L254.669039,55.1257344 C255.756498,55.1257344 256.300219,55.6351668 256.300219,56.6540469 L256.300219,71.2611875 C258.337979,71.2219998 260.194468,71.2024062 261.869742,71.2024062 C262.947404,71.2024062 263.486227,71.7706193 263.486227,72.9070625 L263.486227,73.7006094 Z M280.59157,56.3895312 C280.59157,56.7520174 280.493603,57.0949046 280.297664,57.4182031 L274.390148,67.4404062 L274.390148,73.5977422 C274.390148,74.6852007 273.851326,75.2289219 272.773664,75.2289219 L271.465781,75.2289219 C270.877966,75.2289219 270.432212,75.1064622 270.128508,74.8615391 C269.824803,74.616616 269.672953,74.1953546 269.672953,73.5977422 L269.672953,67.6755312 L263.677266,57.4182031 C263.461733,57.0067323 263.353969,56.6638451 263.353969,56.3895312 C263.353969,55.9290758 263.513166,55.603333 263.831566,55.412293 C264.149966,55.221253 264.490404,55.1257344 264.852891,55.1257344 L266.48407,55.1257344 C266.96412,55.1257344 267.336397,55.2114562 267.600914,55.3829023 C267.865431,55.5543485 268.090757,55.8115139 268.276898,56.1544062 L272.068289,62.7379062 L275.962547,56.1250156 C276.158485,55.7821233 276.38626,55.5298563 276.645879,55.368207 C276.905497,55.2065578 277.280224,55.1257344 277.77007,55.1257344 L279.092648,55.1257344 C279.582495,55.1257344 279.954772,55.2457449 280.209492,55.4857695 C280.464212,55.7257942 280.59157,56.0270451 280.59157,56.3895312 Z" id="CARLISLEFAMILY" fill="#FFFFFF" fill-rule="nonzero"></path>
                <path d="M200.237602,88.3095313 C200.237602,88.6720174 200.139634,89.0149046 199.943695,89.3382031 L194.03618,99.3604063 L194.03618,105.517742 C194.03618,106.605201 193.497357,107.148922 192.419695,107.148922 L191.111813,107.148922 C190.523997,107.148922 190.078244,107.026462 189.774539,106.781539 C189.470834,106.536616 189.318984,106.115355 189.318984,105.517742 L189.318984,99.5955313 L183.323297,89.3382031 C183.107765,88.9267323 183,88.5838451 183,88.3095313 C183,87.8490758 183.159198,87.523333 183.477598,87.332293 C183.795998,87.141253 184.136436,87.0457344 184.498922,87.0457344 L186.130102,87.0457344 C186.610151,87.0457344 186.982428,87.1314562 187.246945,87.3029023 C187.511462,87.4743485 187.736788,87.7315139 187.92293,88.0744063 L191.71432,94.6579063 L195.608578,88.0450156 C195.804517,87.7021233 196.032292,87.4498563 196.29191,87.288207 C196.551529,87.1265578 196.926255,87.0457344 197.416102,87.0457344 L198.73868,87.0457344 C199.228526,87.0457344 199.600803,87.1657449 199.855523,87.4057695 C200.110243,87.6457942 200.237602,87.9470451 200.237602,88.3095313 Z M223.426805,105.679391 C223.426805,106.659083 222.824303,107.148922 221.619281,107.148922 L220.355484,107.148922 C219.31701,107.148922 218.763493,106.629693 218.694914,105.591219 L218.004234,95.3485859 C217.720124,96.0735583 217.21314,97.4720482 216.48327,99.5440977 C215.753399,101.616147 215.256212,102.965653 214.991695,103.592656 C214.805554,104.062909 214.570431,104.413143 214.28632,104.643371 C214.00221,104.873599 213.585846,104.988711 213.037219,104.988711 L212.258367,104.988711 C211.876287,104.988711 211.560341,104.932379 211.31052,104.819715 C211.060698,104.70705 210.854966,104.538056 210.693316,104.312727 C210.531667,104.087397 210.40186,103.847376 210.303891,103.592656 C210.215718,103.386921 209.96835,102.732986 209.561777,101.630832 C209.155205,100.528678 208.741291,99.4044979 208.320023,98.2582578 C207.898756,97.1120177 207.536275,96.1421368 207.23257,95.3485859 L206.571281,105.591219 C206.502703,106.629693 205.949185,107.148922 204.910711,107.148922 L203.646914,107.148922 C202.441892,107.148922 201.839391,106.659083 201.839391,105.679391 L201.839391,105.42957 L203.382398,88.5152656 C203.431383,87.9274502 203.612623,87.5355791 203.926125,87.3396406 C204.239627,87.1437021 204.660888,87.0457344 205.189922,87.0457344 L206.865188,87.0457344 C207.374628,87.0457344 207.773846,87.1339054 208.062855,87.31025 C208.351865,87.4865946 208.574741,87.7707012 208.731492,88.1625781 C208.927431,88.6230336 209.20419,89.3161555 209.561777,90.2419648 C209.919365,91.1677742 210.259803,92.0715268 210.583102,92.95325 C210.9064,93.8349732 211.234592,94.7362766 211.567688,95.6571875 C211.900783,96.5780984 212.263264,97.5675728 212.655141,98.6256406 C212.713922,98.4786868 212.939248,97.876185 213.331125,96.8181172 C213.723002,95.7600494 214.102627,94.721591 214.470012,93.7027109 C214.837396,92.6838308 215.194979,91.7115007 215.54277,90.7856914 C215.89056,89.8598821 216.230998,88.9855197 216.564094,88.1625781 C216.730641,87.7609042 216.951069,87.4743485 217.225383,87.3029023 C217.499697,87.1314562 217.891568,87.0457344 218.401008,87.0457344 L220.090969,87.0457344 C220.610206,87.0457344 221.026569,87.1437021 221.34007,87.3396406 C221.653572,87.5355791 221.834812,87.9274502 221.883797,88.5152656 L223.426805,105.42957 L223.426805,105.679391 Z M241.031789,106.032078 C241.031789,106.453346 240.894634,106.77419 240.62032,106.994621 C240.346006,107.215052 239.851269,107.344859 239.136094,107.384047 C237.784118,107.491813 236.628099,107.545695 235.668,107.545695 C233.875163,107.545695 232.386053,107.332615 231.200625,106.906449 C230.015197,106.480283 229.089402,105.843493 228.423211,104.996059 C227.75702,104.148625 227.289224,103.093022 227.019809,101.829219 C226.750393,100.565416 226.615688,99.0665087 226.615688,97.3324531 C226.615688,94.4913452 226.938981,92.3115623 227.585578,90.7930391 C228.232175,89.2745158 229.197158,88.2360575 230.480555,87.6776328 C231.763952,87.1192081 233.493083,86.84 235.668,86.84 C236.539926,86.84 237.695946,86.8889839 239.136094,86.9869531 C239.851269,87.0261408 240.346006,87.1559481 240.62032,87.3763789 C240.894634,87.5968097 241.031789,87.9176541 241.031789,88.3389219 L241.031789,89.3088125 C241.031789,89.9750033 240.928923,90.4305535 240.723188,90.6754766 C240.517452,90.9203997 240.115784,91.0428594 239.518172,91.0428594 C239.33203,91.0428594 238.866683,91.0183674 238.122117,90.9693828 C237.377551,90.9203982 236.760354,90.8959063 236.270508,90.8959063 C234.742188,90.8959063 233.689034,91.018366 233.111016,91.2632891 C232.591779,91.4886183 232.212154,91.8535483 231.972129,92.3580898 C231.732104,92.8626314 231.585153,93.4504381 231.53127,94.1215273 C231.477386,94.7926166 231.450445,95.75515 231.450445,97.0091563 L231.450445,97.3618438 C231.450445,98.6746316 231.494531,99.6983948 231.582703,100.433164 C231.670875,101.167933 231.9011,101.804724 232.273383,102.343555 C232.645666,102.882386 233.223676,103.220374 234.00743,103.357531 C234.467885,103.435907 235.222237,103.475094 236.270508,103.475094 C236.466446,103.475094 236.936692,103.450602 237.681258,103.401617 C238.425824,103.352633 239.038123,103.328141 239.518172,103.328141 C240.115784,103.328141 240.517452,103.4506 240.723188,103.695523 C240.928923,103.940447 241.031789,104.400895 241.031789,105.076883 L241.031789,106.032078 Z M261.252539,105.943906 C261.252539,106.747254 260.782294,107.148922 259.841789,107.148922 L258.181219,107.148922 C257.661982,107.148922 257.279907,107.038708 257.034984,106.818277 C256.790061,106.597847 256.594126,106.296596 256.447172,105.914516 L255.506672,103.445703 C254.546573,103.465297 253.34157,103.475094 251.891625,103.475094 C250.245742,103.475094 249.045637,103.465297 248.291273,103.445703 L247.468336,105.708781 C247.291991,106.198627 247.081361,106.561108 246.836438,106.796234 C246.591514,107.031361 246.18005,107.148922 245.602031,107.148922 L244.220672,107.148922 C243.593669,107.148922 243.182204,107.058302 242.986266,106.877059 C242.790327,106.695816 242.692359,106.433752 242.692359,106.090859 C242.692359,105.924312 242.78053,105.59612 242.956875,105.106273 L249.158297,88.4564844 C249.285657,88.113592 249.42771,87.8319347 249.584461,87.6115039 C249.741212,87.3910731 249.951842,87.2220787 250.216359,87.1045156 C250.480876,86.9869525 250.828662,86.9281719 251.259727,86.9281719 L252.494133,86.9281719 C253.111339,86.9281719 253.571788,87.0481824 253.875492,87.288207 C254.179197,87.5282317 254.424116,87.9078568 254.610258,88.4270938 L261.134977,105.370789 C261.213352,105.605915 261.252539,105.796952 261.252539,105.943906 Z M254.184094,99.8894375 L251.862234,93.2177656 L249.55507,99.8894375 C249.917556,99.8796406 250.253096,99.872293 250.561699,99.8673945 C250.870302,99.8624961 251.313606,99.8600469 251.891625,99.8600469 C252.430456,99.8600469 252.851717,99.8624961 253.155422,99.8673945 C253.459127,99.872293 253.802014,99.8796406 254.184094,99.8894375 Z" id="YMCA" fill="#FFFFFF" fill-rule="nonzero"></path>
            </g>
        </g>
    </g>
</svg>