<?xml version="1.0" encoding="UTF-8"?>
<!-- Generator: Adobe Illustrator 27.3.1, SVG Export Plug-In . SVG Version: 6.00 Build 0)  -->
<svg xmlns="http://www.w3.org/2000/svg" xmlns:xlink="http://www.w3.org/1999/xlink" version="1.1" id="Layer_1" x="0px" y="0px" viewBox="0 0 350.48001 147.67206" xml:space="preserve">
<path fill-rule="evenodd" clip-rule="evenodd" fill="#1B71B1" d="M141.52899,29.33848c0,0,10.24222-13.22222,8.53598-19.99017  c-1.09789-4.35354-5.99324-6.40674-9.87151-7.48562c-8.99226-2.50947-21.8295-2.20054-30.99285-0.73668  C91.73416,3.92064,74.62417,13.25984,64.59106,28.10276c-6.62062,9.79072-9.89053,24.42927-5.70333,35.25133  c6.11683,15.80773,26.38742,25.30378,29.95675,41.72937c6.40674,29.48148-31.22099,39.19139-52.18548,36.65341  c-24.30569-2.93721-21.7392-15.95982-26.54425-28.78757l-3.11307-1.33078c0,0-3.77846,10.53214-5.29935,15.89327  c-1.06937,3.7737-3.80222,8.56451,1.20721,10.58918c22.69925,9.17761,42.5421,13.1747,66.31073,5.53699  c19.263-6.19287,47.03822-29.40542,35.96425-52.39459c-4.76228-9.89053-14.02068-16.86761-21.22115-24.87603  c-8.86868-9.86676-12.59486-25.36081-8.66431-37.55643c4.61495-14.32487,19.35806-20.58427,33.50232-21.59661  c9.57209-0.6844,21.14985-0.02376,27.35221,7.88961c3.02277,3.85925,3.20337,8.68807,3.17485,13.40758l2.20055,0.82223V29.33848z"></path>
<g>
	<path fill="#1B71B1" d="M154.32822,51.57197c4.57692,2.94672,6.86777,7.12441,6.86777,12.53782h-41.13053   c0.4325,6.99609,2.69957,12.09582,6.80122,15.28968c4.10165,3.19386,8.95898,4.79555,14.57676,4.79555   c4.53416,0,8.35538-0.82698,11.4637-2.48569c3.10832-1.65872,5.97899-4.01134,8.61679-7.05788l2.26706,0.54182   c-1.77278,3.84499-5.08546,7.40482-9.94281,10.66998c-4.85733,3.26991-10.8078,4.90486-17.84666,4.90486   c-8.11774,0-14.3914-2.1435-18.81624-6.44001c-4.42484-4.29176-6.63963-9.23465-6.63963-14.82866   c0-6.07405,2.57125-11.32111,7.709-15.73169c5.13775-4.41533,11.82966-6.62062,20.08048-6.62062   c6.0883,0,11.42091,1.47336,15.99783,4.42008L154.32822,51.57197z M123.30209,55.0415   c-1.38306,1.6302-2.37639,3.68816-2.98,6.16434h27.33797c-0.47528-3.02276-1.29752-5.27558-2.46193-6.75369   c-2.11499-2.6568-5.65581-3.98758-10.62245-3.98758c-4.96666,0-8.67858,1.52564-11.26884,4.57692L123.30209,55.0415z"></path>
	<path fill="#1B71B1" d="M166.89931,88.41074c4.0161-0.27091,6.7347-0.84125,8.16052-1.7015s2.13875-2.54749,2.13875-5.05695   V38.30697c0-1.99616-0.23764-3.36972-0.71292-4.12541c-0.86501-1.26899-2.61401-1.90586-5.24706-1.90586   c-0.60361,0-1.26425,0.04753-1.97716,0.13783c-0.71292,0.0903-1.61121,0.22813-2.69008,0.40874v-1.49713   c5.83165-1.08838,12.84676-2.53798,21.05005-4.35354c0.30418,0,0.48477,0.0903,0.55132,0.27091   c0.06656,0.18061,0.09506,0.57509,0.09506,1.17869v53.41169c0,2.62829,0.64638,4.32978,1.94389,5.09972   c1.29752,0.76995,3.97331,1.26424,8.03218,1.47337v1.26899h-31.3493v-1.26899L166.89931,88.41074z"></path>
	<path fill="#1B71B1" d="M242.10722,51.57197c4.57692,2.94672,6.86775,7.12441,6.86775,12.53782h-41.13527   c0.43251,6.99609,2.69957,12.09582,6.80122,15.28968s8.95898,4.79555,14.57677,4.79555c4.53415,0,8.35538-0.82698,11.4637-2.48569   c3.10832-1.65872,5.97899-4.01134,8.61676-7.05788l2.26709,0.54182c-1.77278,3.84499-5.08548,7.40482-9.94281,10.66998   c-4.85735,3.26991-10.80782,4.90486-17.84666,4.90486c-8.11774,0-14.3914-2.1435-18.81624-6.44001   c-4.42484-4.29176-6.63963-9.23465-6.63963-14.82866c0-6.07405,2.57126-11.32111,7.709-15.73169   c5.13776-4.41533,11.82967-6.62062,20.08047-6.62062c6.08832,0,11.42093,1.47336,15.99785,4.42008V51.57197z M211.07635,55.0415   c-1.38307,1.6302-2.37639,3.68816-2.98,6.16434h27.33797c-0.47528-3.02276-1.29752-5.27558-2.46193-6.75369   c-2.11499-2.6568-5.65581-3.98758-10.62247-3.98758S213.67136,51.99021,211.07635,55.0415z"></path>
	<path fill="#1B71B1" d="M301.54068,49.8372c3.90677,1.94388,5.8602,4.07313,5.8602,6.39248   c0,0.99333-0.49905,1.92012-1.48764,2.78037c-0.99332,0.86025-2.52847,1.288-4.60068,1.288   c-1.51138,0-2.83737-0.36121-3.98282-1.08839c-1.14542-0.72717-1.97714-1.78229-2.49521-3.17485l-0.77945-2.17677   c-0.56082-1.60168-1.53516-2.73285-2.91345-3.39824c-1.42584-0.63687-3.30319-0.95055-5.63681-0.95055   c-4.92386,0-9.07779,1.50663-12.47125,4.51989c-3.38873,3.01326-5.08548,7.01509-5.08548,12.00551   c0,4.57217,1.86783,8.67381,5.60352,12.30493c3.73566,3.63112,8.77835,5.44669,15.12332,5.44669   c4.49139,0,8.4837-1.03135,11.98175-3.0893c1.98666-1.17869,4.22998-3.05603,6.73468-5.63204l1.81555,0.7747   c-2.46191,3.63112-5.05219,6.50655-7.77075,8.62154c-5.2233,4.05412-11.27359,6.08355-18.1366,6.08355   s-12.69467-1.85834-17.87994-5.575c-5.18051-3.71667-7.77075-8.76411-7.77075-15.14234s2.82788-11.63479,8.48367-16.14043   c5.65582-4.50563,12.80399-6.75369,21.43976-6.75369c5.39917,0,10.05215,0.96957,13.95892,2.91345L301.54068,49.8372z"></path>
	<path fill="#1B71B1" d="M347.23862,47.87906v3.26516h-13.21271l-0.12833,26.1165c0,2.29559,0.28043,4.03511,0.84125,5.21379   c1.0361,2.08647,3.06552,3.12733,6.08829,3.12733c1.55417,0,2.90393-0.25665,4.04938-0.76995   c1.14542-0.5133,2.44769-1.33078,3.92105-2.44768l1.68246,0.99809l-1.42584,1.3593   c-2.24329,2.11498-4.61966,3.61211-7.12439,4.48662s-4.92389,1.31652-7.25275,1.31652c-5.09497,0-8.55023-1.58743-10.36581-4.76228   c-0.99332-1.7205-1.48761-4.11115-1.48761-7.16244V51.14423h-7.06262c-0.21863-0.09031-0.38022-0.18061-0.4848-0.27091   c-0.10928-0.09031-0.16159-0.20913-0.16159-0.36121c0-0.30418,0.09506-0.53706,0.28992-0.70341   c0.19485-0.16635,0.80798-0.55132,1.84409-1.15493c2.97998-1.72525,5.12823-3.12257,6.44476-4.1967   s4.41531-3.90678,9.29642-8.50272c0.56082,0,0.89352,0.02851,1.00284,0.09031c0.10452,0.06178,0.16159,0.28992,0.16159,0.67965   v11.15477L347.23862,47.87906L347.23862,47.87906z"></path>
</g>
<g>
	<g>
		<path fill="#1B71B1" d="M139.28091,110.19746c0,1.64446,0.24715,3.11782,0.7462,4.42484    c0.49904,1.30701,1.1787,2.41441,2.04845,3.31743c0.86975,0.90303,1.89635,1.59694,3.07504,2.07697    c1.18344,0.48003,2.46669,0.71767,3.84975,0.71767c0.82698,0,1.62546-0.16159,2.3954-0.48003    c0.76996-0.31844,1.48286-0.73669,2.13875-1.24998s1.24522-1.09314,1.76328-1.73952s0.9458-1.29751,1.2785-1.95815    l1.66823,1.06463c-0.48477,0.79371-1.05988,1.55416-1.7205,2.27657c-0.66064,0.72717-1.42583,1.37355-2.29558,1.93439    c-0.86975,0.56082-1.84885,1.00758-2.94197,1.34029c-1.09314,0.3327-2.31461,0.49429-3.66438,0.49429    c-1.94864,0-3.72142-0.32319-5.3136-0.97432c-1.59219-0.65114-2.95148-1.5304-4.0874-2.64255    c-1.13591-1.11214-2.01517-2.40966-2.63304-3.89252c-0.6226-1.48286-0.93153-3.05128-0.93153-4.71    c0-1.09789,0.14258-2.17202,0.42775-3.21764c0.28517-1.04561,0.69389-2.02943,1.23097-2.94196    c0.53706-0.91728,1.19295-1.75378,1.96765-2.51897c0.7747-0.76044,1.64922-1.42108,2.62352-1.96765    c0.97432-0.55132,2.04369-0.97432,3.20337-1.2785s2.3954-0.45152,3.70715-0.45152c1.31177,0,2.40967,0.16635,3.46478,0.5038    c1.05988,0.33745,2.01993,0.7842,2.88968,1.34029c0.86975,0.55607,1.64445,1.1977,2.32411,1.92487    s1.26425,1.48762,1.74902,2.28133l-1.7205,1.13591c-0.98383-1.90111-2.08171-3.29367-3.29843-4.17769    c-1.21671-0.87926-2.61877-1.32127-4.20145-1.32127c-1.35928,0-2.63304,0.24715-3.81172,0.74619    c-1.18344,0.49429-2.2148,1.20721-3.09406,2.12924c-0.87927,0.92204-1.57317,2.04369-2.07697,3.36021    c-0.5038,1.32127-0.75569,2.80414-0.75569,4.46286L139.28091,110.19746z"></path>
		<path fill="#1B71B1" d="M175.65868,122.41685c-1.82031,0-3.52182-0.32319-5.09975-0.97432    c-1.57791-0.65113-2.95146-1.53991-4.11589-2.67106c-1.16444-1.13116-2.08173-2.44768-2.74712-3.95431    c-0.67014-1.50663-1.00282-3.11782-1.00282-4.83357c0-1.12166,0.15208-2.20529,0.45152-3.24615    c0.30418-1.04086,0.73193-2.01042,1.28799-2.9087c0.55608-0.89827,1.22621-1.71575,2.01042-2.45718    c0.78421-0.73668,1.65872-1.37355,2.61403-1.89635c0.96005-0.52757,1.99142-0.9363,3.10356-1.22622    c1.11215-0.28992,2.2766-0.4325,3.4933-0.4325s2.38115,0.14259,3.49329,0.4325c1.11215,0.28992,2.14825,0.69865,3.11307,1.22622    c0.96481,0.52756,1.83456,1.15968,2.61403,1.89635c0.77946,0.74143,1.44958,1.55891,2.01517,2.45718    c0.56082,0.89828,0.99333,1.86784,1.29276,2.9087c0.30418,1.04086,0.45152,2.12449,0.45152,3.24615    s-0.1521,2.2338-0.45152,3.28892c-0.29942,1.05987-0.73193,2.04845-1.29276,2.97049    c-0.56082,0.92204-1.23097,1.76328-2.01517,2.51897c-0.77946,0.75569-1.65398,1.40683-2.61403,1.94865    c-0.96481,0.54182-2.00092,0.96482-3.11307,1.25949c-1.11214,0.29466-2.27658,0.442-3.49329,0.442L175.65868,122.41685z     M175.65868,121.24766c1.34978,0,2.53798-0.28041,3.57408-0.84124s1.90587-1.34504,2.61403-2.34788    c0.70815-1.00283,1.24522-2.19102,1.60643-3.56458c0.36122-1.37355,0.54182-2.87543,0.54182-4.50562    c0-1.6302-0.1806-3.10356-0.54182-4.45335c-0.36121-1.34978-0.89352-2.50946-1.60643-3.48378    c-0.70816-0.97433-1.58267-1.73001-2.61403-2.27183c-1.0361-0.53707-2.2243-0.80797-3.57408-0.80797    c-1.34979,0-2.57602,0.2709-3.60736,0.80797c-1.0361,0.53706-1.90587,1.2975-2.60452,2.27183    c-0.70341,0.97432-1.23097,2.13875-1.58743,3.48378c-0.35646,1.34504-0.5323,2.83266-0.5323,4.45335    c0,1.62069,0.17584,3.13207,0.5323,4.50562c0.35646,1.37356,0.88402,2.56175,1.58743,3.56458    c0.70341,1.00759,1.57317,1.78704,2.60452,2.34788C173.08742,120.96724,174.28987,121.24766,175.65868,121.24766z"></path>
		<path fill="#1B71B1" d="M193.96159,98.34878h3.95432v21.9911h11.84866v1.52565h-15.80298V98.34878L193.96159,98.34878z"></path>
		<path fill="#1B71B1" d="M213.29114,98.34878h3.95432v21.9911h11.84866v1.52565h-15.80298V98.34878L213.29114,98.34878z"></path>
		<path fill="#1B71B1" d="M232.62543,98.34878h3.95432v24.20589l-3.95432-0.68916V98.34878L232.62543,98.34878z"></path>
		<path fill="#1B71B1" d="M250.68124,120.92447c0.57982,0,1.15491-0.0808,1.72049-0.23764    c0.56558-0.16159,1.07414-0.39449,1.52565-0.70817c0.44676-0.31368,0.80798-0.69866,1.08365-1.15492    c0.27092-0.45627,0.40874-0.98383,0.40874-1.58743c0-0.72242-0.18536-1.36404-0.56082-1.92487    c-0.37073-0.56082-0.86026-1.07413-1.46387-1.54465c-0.60361-0.46577-1.29274-0.90778-2.06744-1.32127    s-1.56366-0.82699-2.36687-1.24048c-0.80322-0.41349-1.59218-0.84599-2.36688-1.30226s-1.46387-0.96481-2.06744-1.52564    c-0.60361-0.56083-1.08838-1.18819-1.46385-1.8821c-0.37071-0.69391-0.56082-1.48763-0.56082-2.38589    c0-0.89828,0.16635-1.73001,0.5038-2.49996c0.33743-0.76994,0.83174-1.43534,1.48288-1.99616    c0.65112-0.56082,1.44958-1.00284,2.40489-1.32127c0.95532-0.31844,2.04369-0.48003,3.27467-0.48003    c1.11217,0,2.10548,0.11882,2.98,0.35646c0.87453,0.23764,1.64447,0.58459,2.30508,1.04561    c0.66064,0.46102,1.22147,1.0266,1.68723,1.70149c0.46103,0.6749,0.83176,1.45435,1.11691,2.34312l-2.01993,0.92204    c-0.23766-0.72243-0.53708-1.3783-0.90305-1.97716c-0.36598-0.59885-0.80322-1.1074-1.31178-1.53515    c-0.50854-0.42774-1.09789-0.75568-1.76329-0.98383c-0.67012-0.23289-1.42107-0.34695-2.26231-0.34695    c-0.7462,0-1.39732,0.10457-1.94864,0.30893c-0.55606,0.20912-1.02185,0.48003-1.39255,0.81748    c-0.37074,0.33745-0.65114,0.71767-0.83174,1.13591c-0.18536,0.41825-0.27567,0.84599-0.27567,1.28325    c0,0.61311,0.19012,1.17869,0.56558,1.69199c0.3802,0.5133,0.87924,0.99809,1.50662,1.45435    c0.62737,0.45628,1.34029,0.89352,2.13875,1.32127s1.61119,0.8555,2.43817,1.29276s1.63971,0.89352,2.43817,1.36404    c0.79846,0.47528,1.5114,0.98858,2.13875,1.55416c0.62738,0.56082,1.13116,1.17869,1.50662,1.84408    c0.38022,0.67014,0.56558,1.41633,0.56558,2.24331c0,0.9363-0.17584,1.81081-0.53232,2.63303    c-0.35645,0.82224-0.88876,1.53515-1.59692,2.14826c-0.70816,0.60835-1.59216,1.08838-2.64253,1.44484    s-2.27657,0.53231-3.66913,0.53231c-1.13593,0-2.14827-0.12358-3.03227-0.37072s-1.66823-0.60835-2.34787-1.08363    c-0.67964-0.47053-1.26422-1.05036-1.74902-1.73001c-0.48477-0.67964-0.87926-1.4591-1.18819-2.33361l2.11023-0.86976    c0.24715,0.76994,0.58458,1.45435,1.00282,2.05795c0.41826,0.6036,0.90778,1.11691,1.46387,1.53514    c0.55608,0.41825,1.17392,0.74143,1.85359,0.96481c0.67964,0.22338,1.40208,0.33746,2.17203,0.33746L250.68124,120.92447z"></path>
		<path fill="#1B71B1" d="M264.33594,98.34878h3.95432v23.51675h-3.95432V98.34878L264.33594,98.34878z"></path>
		<path fill="#1B71B1" d="M286.61221,122.41685c-1.82031,0-3.52179-0.32319-5.09973-0.97432    c-1.57791-0.65113-2.95148-1.53991-4.11588-2.67106c-1.16443-1.13116-2.08173-2.44768-2.74713-3.95431    c-0.67014-1.50663-1.00281-3.11782-1.00281-4.83357c0-1.12166,0.15207-2.20529,0.45151-3.24615    c0.30417-1.04086,0.7319-2.01042,1.28799-2.9087c0.55609-0.89827,1.22623-1.71575,2.01044-2.45718    c0.78421-0.73668,1.65872-1.37355,2.61401-1.89635c0.96008-0.52757,1.99142-0.9363,3.10358-1.22622    c1.11218-0.28992,2.27658-0.4325,3.49329-0.4325s2.38113,0.14259,3.49329,0.4325s2.14825,0.69865,3.11307,1.22622    c0.96481,0.52756,1.83456,1.15968,2.61401,1.89635c0.77945,0.74143,1.44958,1.55891,2.01517,2.45718    c0.56082,0.89828,0.99335,1.86784,1.29276,2.9087c0.30417,1.04086,0.45151,2.12449,0.45151,3.24615    s-0.1521,2.2338-0.45151,3.28892c-0.29944,1.05987-0.73193,2.04845-1.29276,2.97049    c-0.56082,0.92204-1.23099,1.76328-2.01517,2.51897c-0.77945,0.75569-1.65396,1.40683-2.61401,1.94865    c-0.96484,0.54182-2.00095,0.96482-3.11307,1.25949c-1.11218,0.29466-2.27658,0.442-3.49329,0.442L286.61221,122.41685z     M286.61221,121.24766c1.34979,0,2.53799-0.28041,3.5741-0.84124s1.90585-1.34504,2.61401-2.34788    c0.70816-1.00283,1.24524-2.19102,1.60645-3.56458c0.36121-1.37355,0.54184-2.87543,0.54184-4.50562    c0-1.6302-0.18063-3.10356-0.54184-4.45335c-0.36121-1.34978-0.89352-2.50946-1.60645-3.48378    c-0.70816-0.97433-1.58267-1.73001-2.61401-2.27183c-1.0361-0.53707-2.2243-0.80797-3.5741-0.80797    s-2.57599,0.2709-3.60736,0.80797c-1.0361,0.53706-1.90588,1.2975-2.60452,2.27183    c-0.7034,0.97432-1.23099,2.13875-1.58743,3.48378c-0.35648,1.34504-0.53232,2.83266-0.53232,4.45335    c0,1.62069,0.17584,3.13207,0.53232,4.50562c0.35645,1.37356,0.884,2.56175,1.58743,3.56458    c0.7034,1.00759,1.57318,1.78704,2.60452,2.34788C284.04095,120.96724,285.24341,121.24766,286.61221,121.24766z"></path>
		<path fill="#1B71B1" d="M304.91516,98.34878h2.21478l15.41324,17.20505h0.17584V98.34878h1.7395v24.06807h-0.92203    l-16.68698-19.12041h-0.14258v18.56909h-1.79181V98.34879L304.91516,98.34878z"></path>
	</g>
	<g>
		<path fill="#1B71B1" d="M181.48557,122.82558c-1.42108,0-2.72809,0.2519-3.93054,0.75569    c-1.19769,0.50379-2.23381,1.22147-3.10356,2.16251c-0.86975,0.94106-1.54465,2.07696-2.02943,3.40298    c-0.48477,1.33078-0.72717,2.81839-0.72717,4.45811c0,1.63971,0.2614,3.14633,0.78897,4.47711    c0.52754,1.33078,1.24522,2.46194,2.16251,3.39824s1.99617,1.65396,3.23663,2.153c1.24046,0.5038,2.57126,0.75569,3.99232,0.75569    c1.02661,0,1.95815-0.13783,2.78513-0.41824c0.82698-0.27565,1.57317-0.6749,2.23381-1.19769v-8.24608h-4.45335v-1.40207h8.40767    v10.34204c-0.6844,0.36597-1.37831,0.69391-2.07697,0.97432c-0.69865,0.28517-1.44958,0.51805-2.26233,0.70816    c-0.80797,0.19011-1.70148,0.3327-2.67105,0.4325c-0.96957,0.09981-2.06746,0.1521-3.29843,0.1521    c-1.30226,0-2.53798-0.14258-3.70715-0.43251c-1.16919-0.2899-2.25757-0.69865-3.25566-1.23096    c-0.99808-0.53232-1.90111-1.16919-2.70433-1.90587s-1.48763-1.55891-2.04845-2.4572s-0.99808-1.8631-1.30225-2.88968    c-0.30893-1.0266-0.46103-2.10074-0.46103-3.20813c0-1.10738,0.14258-2.17201,0.43251-3.21762    c0.2899-1.04561,0.70816-2.03418,1.24998-2.96098c0.54182-0.9268,1.2072-1.77753,1.98665-2.54273    c0.77946-0.76995,1.66347-1.4306,2.64255-1.98666c0.97906-0.55608,2.05321-0.98857,3.20811-1.29276    c1.15968-0.30892,2.38589-0.46101,3.68817-0.46101c1.30226,0,2.39064,0.16635,3.45052,0.50379s2.01993,0.7842,2.88968,1.34029    s1.63971,1.19769,2.31461,1.92487s1.25473,1.48763,1.73952,2.28133l-1.70149,1.13593    c-0.99333-1.90112-2.09598-3.29367-3.30792-4.1777c-1.21196-0.87926-2.60454-1.32127-4.1777-1.32127L181.48557,122.82558z"></path>
		<path fill="#1B71B1" d="M196.87981,121.67065h8.16052c1.40681,0,2.64255,0.15209,3.70717,0.45152    c1.06461,0.29942,1.94864,0.72241,2.66154,1.269c0.70816,0.54182,1.24524,1.19295,1.60645,1.94388    c0.36122,0.75094,0.54182,1.56841,0.54182,2.45719c0,0.73194-0.13783,1.42107-0.41824,2.05795s-0.67015,1.21671-1.16917,1.73003    c-0.5038,0.51329-1.10739,0.96005-1.81557,1.33076c-0.70816,0.37071-1.48763,0.66539-2.34312,0.87927l8.5645,11.4019h-4.59119    l-8.17477-11.0502h-2.76611v11.0502h-3.95432v-23.51674L196.87981,121.67065z M200.83412,132.94899h2.28609    c0.88876,0,1.70624-0.1188,2.45718-0.35645s1.40208-0.57034,1.94865-1.00284c0.55132-0.4325,0.97906-0.95531,1.28799-1.56841    c0.30893-0.61311,0.46101-1.30702,0.46101-2.07697c0-0.70815-0.12358-1.35928-0.36595-1.94864    c-0.2424-0.58934-0.58459-1.09789-1.02661-1.51614c-0.442-0.41824-0.96956-0.74619-1.57793-0.98383    c-0.60835-0.23764-1.27373-0.35646-1.99617-0.35646h-3.47427v9.80973V132.94899z"></path>
		<path fill="#1B71B1" d="M231.49902,145.73872c-1.8203,0-3.5218-0.3232-5.09973-0.97432s-2.95146-1.5399-4.11591-2.67105    c-1.16443-1.13116-2.08171-2.44768-2.7471-3.95432c-0.67015-1.50664-1.00282-3.11783-1.00282-4.83359    c0-1.12164,0.15208-2.20529,0.45151-3.24614c0.30418-1.04085,0.73193-2.01042,1.28801-2.90869    c0.55608-0.89828,1.2262-1.71574,2.01042-2.45719c0.78421-0.73667,1.65872-1.37356,2.61403-1.89635    c0.96005-0.52755,1.99141-0.93629,3.10356-1.22621c1.11215-0.28992,2.27658-0.43251,3.49329-0.43251    c1.21672,0,2.38115,0.14259,3.4933,0.43251c1.11215,0.28992,2.14825,0.69865,3.11305,1.22621    c0.96481,0.52755,1.83458,1.15968,2.61403,1.89635c0.77946,0.74143,1.4496,1.55891,2.01518,2.45719    c0.56082,0.89828,0.99332,1.86784,1.29276,2.90869c0.30418,1.04086,0.45151,2.1245,0.45151,3.24614    c0,1.12166-0.15208,2.23381-0.45151,3.28893c-0.29944,1.05988-0.73193,2.04845-1.29276,2.97049s-1.23097,1.76328-2.01518,2.51897    c-0.77945,0.75569-1.65396,1.40681-2.61403,1.94864c-0.9648,0.54182-2.0009,0.96481-3.11305,1.25949    c-1.11215,0.29466-2.27658,0.442-3.4933,0.442L231.49902,145.73872z M231.49902,144.56953    c1.34979,0,2.53798-0.28041,3.57408-0.84123s1.90587-1.34503,2.61403-2.34787c0.70816-1.00282,1.24522-2.19102,1.60645-3.56459    c0.36121-1.37355,0.54182-2.87541,0.54182-4.50563s-0.18062-3.10356-0.54182-4.45335    c-0.36122-1.34978-0.89352-2.50946-1.60645-3.48377c-0.70816-0.97431-1.58267-1.73002-2.61403-2.27183    c-1.0361-0.53706-2.22429-0.80798-3.57408-0.80798c-1.34978,0-2.576,0.27091-3.60735,0.80798    c-1.0361,0.53707-1.90587,1.29752-2.60454,2.27183c-0.70341,0.97431-1.23096,2.13875-1.58742,3.48377    c-0.35646,1.34979-0.53232,2.83266-0.53232,4.45335s0.17586,3.13208,0.53232,4.50563    c0.35646,1.37357,0.884,2.56177,1.58742,3.56459c0.70341,1.00758,1.57317,1.78705,2.60454,2.34787    C228.92778,144.28912,230.13022,144.56953,231.49902,144.56953z"></path>
		<path fill="#1B71B1" d="M249.4455,121.67065h3.95432v15.27068c0,1.00758,0.1711,1.94864,0.51331,2.8279    c0.34219,0.87927,0.83174,1.65398,1.47336,2.31461c0.63687,0.66064,1.41156,1.18344,2.31461,1.56841    c0.90302,0.38498,1.91061,0.57509,3.02274,0.57509c1.11215,0,2.134-0.19011,3.03229-0.57509    c0.89828-0.38496,1.66345-0.90778,2.29559-1.56841c0.63214-0.66064,1.11688-1.43533,1.45435-2.31461    c0.33746-0.87926,0.50378-1.82506,0.50378-2.8279v-15.27068h1.7395v15.27068c0,1.2072-0.19482,2.34311-0.58456,3.40298    s-1.00284,1.99617-1.83456,2.79463s-1.90112,1.43059-3.20337,1.89636s-2.86118,0.69865-4.68149,0.69865    c-1.62067,0-3.05127-0.23288-4.30124-0.69865c-1.24998-0.46579-2.29561-1.10266-3.14159-1.90587    c-0.84601-0.80322-1.48286-1.74902-1.91537-2.82791c-0.4325-1.08363-0.64638-2.23856-0.64638-3.46478v-15.16611    L249.4455,121.67065z"></path>
		<path fill="#1B71B1" d="M275.76636,121.67065h7.4476c1.23099,0,2.38116,0.14734,3.46005,0.44201    c1.07413,0.29467,2.01041,0.73193,2.81363,1.30225c0.79846,0.57508,1.42581,1.2785,1.88211,2.11023    c0.45627,0.83174,0.68439,1.78705,0.68439,2.86592s-0.22336,1.99142-0.66541,2.78513    c-0.44199,0.79372-1.02658,1.44958-1.75375,1.96765c-0.7272,0.51805-1.55417,0.90779-2.47623,1.15968    c-0.92203,0.25665-1.86307,0.38022-2.81839,0.38022c-0.41348,0-0.84601-0.00951-1.29272-0.02852    c-0.45154-0.01901-0.87927-0.04277-1.29276-0.08081c-0.41348-0.03326-0.79846-0.07603-1.15491-0.12357    c-0.35648-0.04753-0.64639-0.09506-0.86978-0.14258v10.87434h-3.95432v-23.51672L275.76636,121.67065z M279.72067,132.98701    c0.44678,0.15208,0.92682,0.28041,1.43536,0.38022c0.50854,0.09979,1.02658,0.15208,1.55893,0.15208    c0.85074,0,1.59692-0.12831,2.2338-0.38022c0.6369-0.25189,1.16919-0.60359,1.59692-1.04561    c0.42776-0.442,0.74142-0.96481,0.95056-1.55891c0.20438-0.59885,0.30893-1.23097,0.30893-1.90587    c0-0.79372-0.13782-1.50663-0.40872-2.14825c-0.2709-0.63687-0.64636-1.18343-1.1264-1.63971    c-0.48004-0.45627-1.04086-0.80798-1.68246-1.05512c-0.64636-0.24714-1.33554-0.37071-2.06744-0.37071h-2.80417v9.57684    L279.72067,132.98701z"></path>
	</g>
</g>
</svg>
