<?xml version="1.0" encoding="UTF-8"?> <svg xmlns="http://www.w3.org/2000/svg" width="278.113" height="66.9" viewBox="0 0 278.113 66.9"><g id="Group_5985" data-name="Group 5985" transform="translate(-83.727 -175.811)"><path id="Path_14620" data-name="Path 14620" d="M83.727,175.811l38.629,66.9,38.62-66.9Zm41.739,38.855c-.176.226-4.424,3.865-4.6,3.983a.854.854,0,0,1-.765.1c-.49-.186-.431-.677-.451-.951-.039-.785-.029-1.579-.01-2.374.029-.706,1.618-23.111,1.756-23.229a11.976,11.976,0,0,1,4.659-2.119c-.029.4-1.619,22.63-1.648,23.445C124.367,214.941,125.456,214.646,125.466,214.666Zm12.262-24.9c-.069.294-.1.893-.49.638a15.665,15.665,0,0,0-10.908-1.893,17.066,17.066,0,0,0-6.386,2.6,25.454,25.454,0,0,0-4.041,3.276,15.577,15.577,0,0,0-1.805,2.129,7.828,7.828,0,0,0-1.677,4.728,6.821,6.821,0,0,0,.373,1.324s-3.139,1.53-4.542,1.02c-.481-.177-.471-.981-.471-1.383a15.873,15.873,0,0,1,.382-3.4,11.314,11.314,0,0,1,.922-2.629,16.318,16.318,0,0,1,3.384-4.336c.569-.549,1.157-1.069,1.746-1.589.206-.186.422-.363.647-.54a23.253,23.253,0,0,1,13.056-4.983,22.013,22.013,0,0,1,4.954.226,13.068,13.068,0,0,1,1.834.422,8.619,8.619,0,0,1,2.442,1.167,2.793,2.793,0,0,1,.677,2.757C137.8,189.466,137.767,189.623,137.728,189.77Z" transform="translate(0 0)" fill="#638d7b"></path><g id="Group_5984" data-name="Group 5984" transform="translate(163.891 195.068)"><path id="Path_14621" data-name="Path 14621" d="M387.816,256.951h-6.465v-4.5h18.535v4.5h-6.465v16.593h-5.6Z" transform="translate(-381.351 -251.069)" fill="#638d7b"></path><path id="Path_14622" data-name="Path 14622" d="M450.576,276.84h4.856l.056,2.136a4.184,4.184,0,0,1,1.443-1.79,3.7,3.7,0,0,1,2.136-.625,4.037,4.037,0,0,1,1.637.306l-.388,4.717a4.693,4.693,0,0,0-1.832-.361,2.578,2.578,0,0,0-2.178.957,4.622,4.622,0,0,0-.735,2.845v6.132h-4.995Z" transform="translate(-431.93 -268.682)" fill="#638d7b"></path><path id="Path_14623" data-name="Path 14623" d="M498.394,254.721a2.789,2.789,0,0,1-2-.763,2.512,2.512,0,0,1-.8-1.9,2.555,2.555,0,0,1,.8-1.914,2.956,2.956,0,0,1,4,0,2.555,2.555,0,0,1,.8,1.914,2.512,2.512,0,0,1-.8,1.9A2.788,2.788,0,0,1,498.394,254.721Zm-2.5,2.248h4.995v14.317H495.9Z" transform="translate(-464.821 -248.811)" fill="#638d7b"></path><path id="Path_14624" data-name="Path 14624" d="M534.359,292.355a7.125,7.125,0,0,1-5.16-1.72,6.679,6.679,0,0,1-1.776-5.022v-8.019h4.995v7.88a2.961,2.961,0,0,0,.471,1.845,1.793,1.793,0,0,0,1.5.6,1.707,1.707,0,0,0,1.429-.583,3.019,3.019,0,0,0,.458-1.859v-7.88h4.995v8.019a6.7,6.7,0,0,1-1.762,5.036A7.112,7.112,0,0,1,534.359,292.355Z" transform="translate(-488.078 -269.436)" fill="#638d7b"></path><path id="Path_14625" data-name="Path 14625" d="M590.985,276.389h4.856l.055,1.748a3.823,3.823,0,0,1,1.623-1.623,5.274,5.274,0,0,1,2.512-.569,4.849,4.849,0,0,1,2.469.61,4.347,4.347,0,0,1,1.665,1.748,4.279,4.279,0,0,1,1.775-1.735,5.615,5.615,0,0,1,2.692-.624,4.66,4.66,0,0,1,3.788,1.54,6.86,6.86,0,0,1,1.29,4.509v8.713h-4.967v-7.769a3.271,3.271,0,0,0-.458-1.929,1.655,1.655,0,0,0-1.429-.624,1.757,1.757,0,0,0-1.5.708,3.371,3.371,0,0,0-.527,2.039v7.575h-4.967v-7.769a3.273,3.273,0,0,0-.458-1.929,1.625,1.625,0,0,0-1.4-.624,1.786,1.786,0,0,0-1.526.708,3.371,3.371,0,0,0-.527,2.039v7.575h-4.967Z" transform="translate(-534.521 -268.231)" fill="#638d7b"></path><path id="Path_14626" data-name="Path 14626" d="M687.613,276.389H692.3l.056,1.637a4.237,4.237,0,0,1,1.734-1.54,5.537,5.537,0,0,1,2.484-.541,6.106,6.106,0,0,1,3.33.929,6.48,6.48,0,0,1,2.331,2.65,9.437,9.437,0,0,1,.028,7.811,6.914,6.914,0,0,1-2.359,2.774,6.017,6.017,0,0,1-3.469,1.04,5.237,5.237,0,0,1-2.178-.457,4.353,4.353,0,0,1-1.651-1.262v8.074h-4.995Zm7.6,10.322a2.722,2.722,0,0,0,2.095-.888,3.57,3.57,0,0,0,0-4.551,2.723,2.723,0,0,0-2.095-.887,2.68,2.68,0,0,0-2.081.887,3.619,3.619,0,0,0,0,4.551A2.678,2.678,0,0,0,695.215,286.711Z" transform="translate(-605.122 -268.231)" fill="#638d7b"></path><path id="Path_14627" data-name="Path 14627" d="M755.191,247.306h4.995v9.684a4.044,4.044,0,0,1,1.665-1.457,5.38,5.38,0,0,1,2.386-.513,4.546,4.546,0,0,1,3.732,1.54,6.972,6.972,0,0,1,1.262,4.509v8.713h-4.994v-7.769q0-2.552-1.915-2.553a1.891,1.891,0,0,0-1.582.708,3.242,3.242,0,0,0-.555,2.04v7.575h-4.995Z" transform="translate(-654.498 -247.306)" fill="#638d7b"></path><path id="Path_14628" data-name="Path 14628" d="M824.113,252.456h12.542v2.137H826.61v7.437h8.658v2.136H826.61v9.379h-2.5Z" transform="translate(-704.856 -251.069)" fill="#151515"></path><path id="Path_14629" data-name="Path 14629" d="M885.677,292.355a7.309,7.309,0,0,1-3.649-.929,6.968,6.968,0,0,1-2.636-2.622,7.783,7.783,0,0,1-.056-7.478,7.278,7.278,0,0,1,2.6-2.705,6.992,6.992,0,0,1,3.745-1.026,7.311,7.311,0,0,1,3.649.929,6.973,6.973,0,0,1,2.636,2.622,7.784,7.784,0,0,1,.055,7.478,7.284,7.284,0,0,1-2.6,2.705A6.994,6.994,0,0,1,885.677,292.355Zm0-2.108a4.547,4.547,0,0,0,3.5-1.471,5.995,5.995,0,0,0,0-7.6,4.891,4.891,0,0,0-6.993,0,5.995,5.995,0,0,0,0,7.6A4.545,4.545,0,0,0,885.677,290.247Z" transform="translate(-744.526 -269.436)" fill="#151515"></path><path id="Path_14630" data-name="Path 14630" d="M952.018,292.355a7.31,7.31,0,0,1-3.649-.929,6.972,6.972,0,0,1-2.636-2.622,7.785,7.785,0,0,1-.056-7.478,7.279,7.279,0,0,1,2.6-2.705,6.993,6.993,0,0,1,3.746-1.026,7.311,7.311,0,0,1,3.649.929,6.972,6.972,0,0,1,2.636,2.622,7.784,7.784,0,0,1,.055,7.478,7.283,7.283,0,0,1-2.6,2.705A6.994,6.994,0,0,1,952.018,292.355Zm0-2.108a4.547,4.547,0,0,0,3.5-1.471,6,6,0,0,0,0-7.6,4.891,4.891,0,0,0-6.993,0,5.995,5.995,0,0,0,0,7.6A4.545,4.545,0,0,0,952.018,290.247Z" transform="translate(-792.998 -269.436)" fill="#151515"></path><path id="Path_14631" data-name="Path 14631" d="M1017.751,270.225a6.381,6.381,0,0,1-3.371-.915,6.5,6.5,0,0,1-2.4-2.608,8.179,8.179,0,0,1-.888-3.858,7.717,7.717,0,0,1,.875-3.621,7.085,7.085,0,0,1,2.483-2.719,6.453,6.453,0,0,1,3.579-1.04,5.607,5.607,0,0,1,2.9.777,5.83,5.83,0,0,1,2.123,2.192V247.306h2.359v22.475h-2.3l-.056-2.525a5.556,5.556,0,0,1-2.178,2.206A6.318,6.318,0,0,1,1017.751,270.225Zm.61-2.108a4.548,4.548,0,0,0,3.5-1.471,6,6,0,0,0,0-7.6,4.891,4.891,0,0,0-6.993,0,5.994,5.994,0,0,0,0,7.6A4.545,4.545,0,0,0,1018.361,268.117Z" transform="translate(-841.472 -247.306)" fill="#151515"></path><path id="Path_14632" data-name="Path 14632" d="M1082.612,292.355a9.6,9.6,0,0,1-2.6-.36,6.214,6.214,0,0,1-2.066-.944l.36-2.081a7.12,7.12,0,0,0,2.039,1.026,7.206,7.206,0,0,0,2.262.389,4.53,4.53,0,0,0,2.414-.541,1.674,1.674,0,0,0,.86-1.485,1.721,1.721,0,0,0-.291-1.054,2.63,2.63,0,0,0-1-.721,14.443,14.443,0,0,0-2.067-.721,8.151,8.151,0,0,1-3.33-1.665,3.364,3.364,0,0,1-1-2.525,3.584,3.584,0,0,1,1.4-2.982,6.039,6.039,0,0,1,3.816-1.1,8.954,8.954,0,0,1,2.275.305,6.351,6.351,0,0,1,1.915.8l-.389,2a7.016,7.016,0,0,0-3.857-1.137,3.934,3.934,0,0,0-2.137.485,1.547,1.547,0,0,0-.749,1.374,1.632,1.632,0,0,0,.639,1.36,7.527,7.527,0,0,0,2.359,1,9.788,9.788,0,0,1,3.718,1.762,3.444,3.444,0,0,1,1.082,2.678,3.543,3.543,0,0,1-1.554,3A6.8,6.8,0,0,1,1082.612,292.355Z" transform="translate(-890.324 -269.436)" fill="#151515"></path></g></g></svg> 