<svg xmlns="http://www.w3.org/2000/svg" viewBox="0 0 212.04 41.23"><defs><style>.cls-1,.cls-2{fill:#fff;}.cls-2,.cls-3{opacity:0.8;}</style></defs><title>vermilion-logo-white</title><g id="Layer_2" data-name="Layer 2"><g id="Layer_1-2" data-name="Layer 1"><polygon class="cls-1" points="92.13 23.46 89.93 23.46 83.39 6.51 85.7 6.51 91.01 21.39 91.08 21.39 96.34 6.51 98.47 6.51 92.13 23.46"/><path class="cls-1" d="M108.13,7.76a4.85,4.85,0,0,0-2.26.51,5.3,5.3,0,0,0-1.68,1.34,6.76,6.76,0,0,0-1.1,1.93,9.52,9.52,0,0,0-.54,2.25h11a7.51,7.51,0,0,0-.41-2.26A6.12,6.12,0,0,0,112,9.61a5.29,5.29,0,0,0-1.68-1.34,4.76,4.76,0,0,0-2.23-.51m0,16.16a7.86,7.86,0,0,1-3.46-.71,6.3,6.3,0,0,1-2.38-1.94,8.38,8.38,0,0,1-1.36-2.86,13.06,13.06,0,0,1-.44-3.43,12.42,12.42,0,0,1,.44-3.28,8.69,8.69,0,0,1,1.36-2.87,6.84,6.84,0,0,1,2.38-2A7.34,7.34,0,0,1,108.13,6a6.7,6.7,0,0,1,5.82,3,8.76,8.76,0,0,1,1.3,3.05,13.15,13.15,0,0,1,.33,3.49h-13a9.2,9.2,0,0,0,.31,2.32,6.34,6.34,0,0,0,1,2.15,5.67,5.67,0,0,0,1.74,1.58,4.88,4.88,0,0,0,2.53.62A5,5,0,0,0,111.67,21a6.21,6.21,0,0,0,1.77-3.15h2.07a8.23,8.23,0,0,1-2.41,4.46,7.17,7.17,0,0,1-5,1.58"/><path class="cls-1" d="M121.26,23.46h-2.07v-17h1.9v4h.07A6.46,6.46,0,0,1,123.6,7.3a6.31,6.31,0,0,1,3.6-1h.36V8.35h-.37a6,6,0,0,0-2.19.39,5.63,5.63,0,0,0-3.28,3.22,6.43,6.43,0,0,0-.46,2.48v9"/><path class="cls-1" d="M153.77,23.46H151.7V12.06a5,5,0,0,0-.89-3.2,3.82,3.82,0,0,0-3.12-1.1,4.42,4.42,0,0,0-2.23.51A4,4,0,0,0,144,9.63a5.94,5.94,0,0,0-.74,2,11.78,11.78,0,0,0-.21,2.28v9.59H141V12a7,7,0,0,0-.18-1.62A3.76,3.76,0,0,0,140.26,9a2.79,2.79,0,0,0-1.1-.9,3.86,3.86,0,0,0-1.68-.33,5.12,5.12,0,0,0-2.28.48,4.23,4.23,0,0,0-1.58,1.31,5.81,5.81,0,0,0-.9,2,9.59,9.59,0,0,0-.3,2.48v9.46h-2.07V6.51h1.91V9.37h.1a6.47,6.47,0,0,1,2.15-2.46,6,6,0,0,1,3.4-.89,5.79,5.79,0,0,1,3,.82,4,4,0,0,1,1.82,2.49A5.19,5.19,0,0,1,145,6.84,6.39,6.39,0,0,1,148.15,6q5.62,0,5.62,5.94v11.5"/><path class="cls-1" d="M160.63,3.32h-2.07V0h2.07Zm0,20.14h-2.07V6.52h2.07Z"/><rect class="cls-1" x="165.47" width="2.06" height="23.46"/><path class="cls-1" d="M174.42,3.32h-2.06V0h2.06Zm0,20.14h-2.06V6.52h2.06Z"/><path class="cls-1" d="M186.39,7.76a5.2,5.2,0,0,0-2.6.63A5.64,5.64,0,0,0,181.94,10a7.4,7.4,0,0,0-1.12,2.31,9.39,9.39,0,0,0,0,5.29,7.45,7.45,0,0,0,1.12,2.32,5.65,5.65,0,0,0,1.85,1.64,5.72,5.72,0,0,0,5.19,0,5.68,5.68,0,0,0,1.86-1.64A7.46,7.46,0,0,0,192,17.63a9.39,9.39,0,0,0,0-5.29A7.41,7.41,0,0,0,190.85,10,5.68,5.68,0,0,0,189,8.39a5.18,5.18,0,0,0-2.59-.63m0,16.16a7.92,7.92,0,0,1-3.43-.71,7.21,7.21,0,0,1-2.51-1.92,8.39,8.39,0,0,1-1.54-2.84,11.19,11.19,0,0,1-.52-3.47,11.18,11.18,0,0,1,.52-3.46,8.35,8.35,0,0,1,1.54-2.84A7.4,7.4,0,0,1,183,6.74a8.48,8.48,0,0,1,6.86,0,7.41,7.41,0,0,1,2.52,1.94,8.45,8.45,0,0,1,1.54,2.84,11.72,11.72,0,0,1,0,6.93,8.5,8.5,0,0,1-1.54,2.84,7.22,7.22,0,0,1-2.52,1.92,7.89,7.89,0,0,1-3.43.71"/><path class="cls-1" d="M212,23.46H210V12.89a9.72,9.72,0,0,0-.2-2,4.3,4.3,0,0,0-.69-1.62,3.3,3.3,0,0,0-1.33-1.08,4.86,4.86,0,0,0-2.09-.4,5.29,5.29,0,0,0-2.22.44,4.83,4.83,0,0,0-1.65,1.22,5.55,5.55,0,0,0-1,1.84,7.49,7.49,0,0,0-.42,2.32v9.88h-2.06V6.51h2.06V9.43h.07A4.94,4.94,0,0,1,202.51,7,6.15,6.15,0,0,1,205.83,6a8.4,8.4,0,0,1,3,.46,4.71,4.71,0,0,1,1.92,1.3,4.86,4.86,0,0,1,1,2.06,11.57,11.57,0,0,1,.29,2.72v10.9"/><path class="cls-2" d="M103,35.08a1.37,1.37,0,0,0-.69.16,1.28,1.28,0,0,0-.45.43,1.89,1.89,0,0,0-.25.6,3.11,3.11,0,0,0-.07.7,2.38,2.38,0,0,0,.09.67,1.83,1.83,0,0,0,.27.58,1.33,1.33,0,0,0,.47.4,1.41,1.41,0,0,0,.67.15,1.28,1.28,0,0,0,1.15-.58,1.7,1.7,0,0,0,.26-.59,2.64,2.64,0,0,0,.08-.67,2.77,2.77,0,0,0-.09-.7,1.72,1.72,0,0,0-.27-.59,1.39,1.39,0,0,0-.48-.41,1.49,1.49,0,0,0-.71-.16m-.06,4.39a2.22,2.22,0,0,1-1-.21,2,2,0,0,1-.7-.56,2.26,2.26,0,0,1-.42-.81,3.2,3.2,0,0,1-.14-1,3.41,3.41,0,0,1,.14-1,2.37,2.37,0,0,1,.41-.81,2,2,0,0,1,.7-.55,2.17,2.17,0,0,1,1-.21,2.08,2.08,0,0,1,.41,0,2,2,0,0,1,.43.13,2.09,2.09,0,0,1,.41.24,1.3,1.3,0,0,1,.32.36h0V32.62h.81v6.74h-.81v-.66h0a1.19,1.19,0,0,1-.62.59,2.44,2.44,0,0,1-.94.18"/><path class="cls-2" d="M112.75,35.08a1.43,1.43,0,0,0-.56.11,1.33,1.33,0,0,0-.43.3,1.37,1.37,0,0,0-.28.43,1.67,1.67,0,0,0-.12.54h2.8a1.65,1.65,0,0,0-.13-.54,1.39,1.39,0,0,0-.29-.44,1.52,1.52,0,0,0-.44-.29,1.39,1.39,0,0,0-.55-.11m.1,4.39a2.5,2.5,0,0,1-1-.19,2,2,0,0,1-.72-.53,2.21,2.21,0,0,1-.44-.81,3.88,3.88,0,0,1-.17-1,3,3,0,0,1,.17-1,2.39,2.39,0,0,1,.48-.81,2.05,2.05,0,0,1,.72-.53,2.22,2.22,0,0,1,.92-.19,2,2,0,0,1,1.08.27,2.13,2.13,0,0,1,.69.69,2.74,2.74,0,0,1,.36.9,4,4,0,0,1,.08.93h-3.65a1.94,1.94,0,0,0,.08.61,1.51,1.51,0,0,0,.27.51,1.38,1.38,0,0,0,.48.35,1.61,1.61,0,0,0,.69.13,1.39,1.39,0,0,0,.83-.23,1.15,1.15,0,0,0,.43-.72h.8a2,2,0,0,1-.71,1.24,2.21,2.21,0,0,1-1.38.41"/><polygon class="cls-2" points="122.28 39.36 121.43 39.36 119.61 34.48 120.51 34.48 121.88 38.56 121.9 38.56 123.23 34.48 124.07 34.48 122.28 39.36"/><path class="cls-2" d="M131,35.08a1.45,1.45,0,0,0-.56.11,1.33,1.33,0,0,0-.43.3,1.46,1.46,0,0,0-.28.43,1.67,1.67,0,0,0-.12.54h2.8a1.51,1.51,0,0,0-.13-.54,1.39,1.39,0,0,0-.29-.44,1.37,1.37,0,0,0-1-.4m.1,4.39a2.51,2.51,0,0,1-1-.19,2.07,2.07,0,0,1-.72-.53,2.22,2.22,0,0,1-.44-.81,3.8,3.8,0,0,1-.17-1,2.86,2.86,0,0,1,.17-1,2.38,2.38,0,0,1,.47-.81,2.16,2.16,0,0,1,.73-.53,2.21,2.21,0,0,1,.92-.19,2,2,0,0,1,1.08.27,2.12,2.12,0,0,1,.69.69,2.64,2.64,0,0,1,.36.9,3.77,3.77,0,0,1,.08.93h-3.65a2,2,0,0,0,.08.61,1.42,1.42,0,0,0,.28.51,1.32,1.32,0,0,0,.48.35,1.61,1.61,0,0,0,.69.13,1.42,1.42,0,0,0,.84-.23,1.17,1.17,0,0,0,.43-.72h.79a2,2,0,0,1-.71,1.24,2.21,2.21,0,0,1-1.38.41"/><rect class="cls-2" x="138.42" y="32.63" width="0.81" height="6.74"/><g class="cls-3"><path class="cls-1" d="M146.83,35.08a1.45,1.45,0,0,0-.59.12,1.43,1.43,0,0,0-.49.36,1.61,1.61,0,0,0-.32.58,2.33,2.33,0,0,0-.12.79,2.38,2.38,0,0,0,.12.79,1.56,1.56,0,0,0,.32.57,1.39,1.39,0,0,0,.49.36,1.5,1.5,0,0,0,1.18,0,1.38,1.38,0,0,0,.48-.36,1.66,1.66,0,0,0,.33-.57,2.4,2.4,0,0,0,.12-.79,2.35,2.35,0,0,0-.12-.79,1.72,1.72,0,0,0-.33-.58,1.42,1.42,0,0,0-.48-.36,1.45,1.45,0,0,0-.59-.12m0,4.39a2.45,2.45,0,0,1-1-.2,2,2,0,0,1-.75-.54,2.25,2.25,0,0,1-.45-.81,3.46,3.46,0,0,1,0-2,2.23,2.23,0,0,1,.45-.81,2.1,2.1,0,0,1,.75-.54,2.69,2.69,0,0,1,2,0,2.15,2.15,0,0,1,.74.54,2.24,2.24,0,0,1,.45.81,3.44,3.44,0,0,1,0,2,2.27,2.27,0,0,1-.45.81,2.06,2.06,0,0,1-.74.54,2.45,2.45,0,0,1-1,.2"/><path class="cls-1" d="M156.69,35.08a1.36,1.36,0,0,0-.69.16,1.46,1.46,0,0,0-.46.42,1.91,1.91,0,0,0-.26.59,2.9,2.9,0,0,0-.08.67,2.79,2.79,0,0,0,.09.7,1.67,1.67,0,0,0,.27.59,1.36,1.36,0,0,0,.47.41,1.49,1.49,0,0,0,.71.16,1.39,1.39,0,0,0,.69-.16,1.32,1.32,0,0,0,.44-.43,1.9,1.9,0,0,0,.25-.61,3.22,3.22,0,0,0,.07-.7,2.53,2.53,0,0,0-.09-.66,2,2,0,0,0-.28-.58,1.31,1.31,0,0,0-.47-.41,1.45,1.45,0,0,0-.67-.15m-1.46,6.15h-.81V34.49h.81v.66h0a1.22,1.22,0,0,1,.62-.59,2.39,2.39,0,0,1,.94-.18,2.18,2.18,0,0,1,1,.21,2,2,0,0,1,.7.57,2.42,2.42,0,0,1,.41.82,3.19,3.19,0,0,1,.14,1,3.4,3.4,0,0,1-.14,1,2.38,2.38,0,0,1-.41.81,1.92,1.92,0,0,1-.7.54,2.27,2.27,0,0,1-1,.2,2.09,2.09,0,0,1-.4,0,2,2,0,0,1-.44-.12,1.74,1.74,0,0,1-.41-.23,1.41,1.41,0,0,1-.33-.36h0v2.51"/></g><path class="cls-2" d="M171.09,39.36h-.8v-3.2a2.48,2.48,0,0,0,0-.43.85.85,0,0,0-.14-.35.7.7,0,0,0-.28-.23,1.17,1.17,0,0,0-.48-.09,1.27,1.27,0,0,0-.93.34,1.24,1.24,0,0,0-.34.91v3h-.81v-3.2a2.05,2.05,0,0,0,0-.44,1,1,0,0,0-.14-.34.8.8,0,0,0-.28-.23,1.1,1.1,0,0,0-.45-.08,1.17,1.17,0,0,0-.6.14,1.32,1.32,0,0,0-.41.34,1.37,1.37,0,0,0-.23.41,1.21,1.21,0,0,0-.07.36v3h-.81V34.48H165v.72h0a1.9,1.9,0,0,1,2.4-.64,1,1,0,0,1,.52.65,1.69,1.69,0,0,1,.65-.62,1.85,1.85,0,0,1,.89-.22,2.65,2.65,0,0,1,.67.08,1.4,1.4,0,0,1,.51.25,1.12,1.12,0,0,1,.33.44,1.58,1.58,0,0,1,.11.64v3.58"/><path class="cls-2" d="M178.52,35.08a1.43,1.43,0,0,0-.56.11,1.33,1.33,0,0,0-.43.3,1.37,1.37,0,0,0-.28.43,1.85,1.85,0,0,0-.13.54h2.81a1.82,1.82,0,0,0-.13-.54,1.39,1.39,0,0,0-.29-.44,1.52,1.52,0,0,0-.44-.29,1.42,1.42,0,0,0-.55-.11m.1,4.39a2.48,2.48,0,0,1-1-.19,2,2,0,0,1-.72-.53,2.21,2.21,0,0,1-.44-.81,3.85,3.85,0,0,1-.16-1,2.86,2.86,0,0,1,.17-1,2.39,2.39,0,0,1,.48-.81,2.05,2.05,0,0,1,.72-.53,2.19,2.19,0,0,1,.92-.19,2,2,0,0,1,1.08.27,2.1,2.1,0,0,1,.68.69,2.75,2.75,0,0,1,.36.9,4,4,0,0,1,.08.93h-3.66a2,2,0,0,0,.08.61,1.33,1.33,0,0,0,.27.51,1.38,1.38,0,0,0,.48.35,1.61,1.61,0,0,0,.69.13,1.41,1.41,0,0,0,.83-.23,1.15,1.15,0,0,0,.43-.72h.79a1.93,1.93,0,0,1-.71,1.24,2.2,2.2,0,0,1-1.38.41"/><path class="cls-2" d="M189.9,39.36h-.81v-3.3a1,1,0,0,0-.27-.72,1,1,0,0,0-.73-.26,1.65,1.65,0,0,0-.64.11,1.09,1.09,0,0,0-.44.32,1.35,1.35,0,0,0-.27.48,2.08,2.08,0,0,0-.09.61v2.75h-.8V34.48h.75v.77h0a1.7,1.7,0,0,1,1.58-.89,2.12,2.12,0,0,1,.8.13,1.32,1.32,0,0,1,.52.37,1.4,1.4,0,0,1,.28.57,3,3,0,0,1,.08.72v3.21"/><path class="cls-2" d="M197.44,39.36h-.61a2.88,2.88,0,0,1-.53,0,.79.79,0,0,1-.36-.16.61.61,0,0,1-.2-.32,1.77,1.77,0,0,1-.07-.55v-3.1h-.83v-.71h.83V33h.81v1.46h1v.71h-1v3a1.19,1.19,0,0,0,0,.23l.09.13a.43.43,0,0,0,.18.06l.3,0h.36v.7"/><path class="cls-1" d="M41.83,17.75c4.75-3,11.94-6.52,19.66-6.52a23.09,23.09,0,0,1,13.25,4.09,27.37,27.37,0,0,0-10.65-1.93,35.81,35.81,0,0,0-16.67,4.26H46.8c-1.68,0-3.34,0-5,.12m-1.12,4.18q-2.21-.17-4.3-.23c.3-.26.79-.66,1.45-1.17h.55q2.11,0,4.12.07-.91.63-1.83,1.34M17.13,30.51a44.91,44.91,0,0,1-5.84-.39h.1c1.2,0,12.5-.16,22-6.25q2.14.22,4.21.52c-2.52,1.85-9.54,6.11-20.53,6.11"/><path class="cls-2" d="M11,23.28a119.2,119.2,0,0,1,30.79-5.52c-1.64,1-3,2-4,2.78A144.67,144.67,0,0,0,11,23.28m80.9,8.28H84s-13.84-10-41.44-11a44.87,44.87,0,0,1,4.87-3c14.51.09,30.94,3.25,44.52,13.91"/><path class="cls-1" d="M42.55,20.6c-1.34,0-2.72-.07-4.12-.07h-.55c1-.76,2.33-1.74,4-2.78,1.62-.07,3.28-.11,5-.11h.62a44.76,44.76,0,0,0-4.87,3"/><path class="cls-1" d="M12.37,24.16a82.32,82.32,0,0,1,21.09-2.5q1.44,0,3,0l-.34.29a31.24,31.24,0,0,1-2.64,1.88,92.84,92.84,0,0,0-9.37-.48,90.17,90.17,0,0,0-11.71.76M86.09,39.28H77.37A99,99,0,0,0,37.65,24.39a13.2,13.2,0,0,0,1.05-.84q1-.86,2-1.62A83.38,83.38,0,0,1,86.09,39.28"/><path class="cls-1" d="M37.65,24.39q-2.06-.3-4.21-.52A31,31,0,0,0,36.08,22l.34-.3q2.09.07,4.3.23-1,.77-2,1.62a13.29,13.29,0,0,1-1.05.84"/><path class="cls-2" d="M12.74,28.21A20.13,20.13,0,0,1,0,23.71l4.19.11s3.4,2.45,10.5,2.45a39.68,39.68,0,0,0,10.58-1.56,25.56,25.56,0,0,1-12.54,3.5"/></g></g></svg>